<svg width="158" height="332" viewBox="0 0 158 332" fill="none" xmlns="http://www.w3.org/2000/svg">
<path d="M74.8959 120.684L148.37 190.605C153.963 195.928 156.917 202.824 157.266 209.834C156.891 202.881 153.92 196.046 148.37 190.764C136.459 179.409 116.957 179.409 105.025 190.764M74.8959 120.684L53.2664 141.248C47.3027 146.903 39.4591 149.75 31.6155 149.75C23.7549 149.75 15.89 146.903 9.94765 141.248C5.71894 137.219 2.97368 132.29 1.7332 127.086C2.95237 132.311 5.69336 137.3 9.94765 141.345L83.4386 211.307M74.8959 120.684L148.37 50.7424C160.28 39.3917 160.28 20.8485 148.37 9.4978C136.459 -1.83259 116.957 -1.83259 105.03 9.4978L9.94765 100.003C4.70439 104.993 1.75452 111.374 1.13641 117.934C1.77583 111.414 4.7257 105.07 9.94765 100.1C21.858 88.7699 41.3603 88.7699 53.2664 100.1L74.8959 120.684ZM83.4386 211.307L105.025 190.764M83.4386 211.307L105.026 231.85C116.957 243.184 136.459 243.184 148.37 231.85C153.592 226.881 156.52 220.556 157.16 214.037C157.305 212.641 157.326 211.23 157.262 209.834C156.891 202.881 153.92 196.045 148.366 190.764C136.455 179.413 116.953 179.413 105.025 190.764M31.6198 331C39.4634 331 47.307 328.152 53.2706 322.497L74.9002 301.934L53.2706 281.35C41.3646 270.016 21.858 270.016 9.95191 281.35C4.72996 286.319 1.7801 292.664 1.14067 299.183C0.953109 301.009 0.953109 302.834 1.14067 304.664C1.7801 311.183 4.72996 317.528 9.95191 322.497C15.89 328.152 23.7549 331 31.6198 331ZM74.8959 301.934L148.37 231.992C160.28 220.641 160.28 202.098 148.37 190.747C136.459 179.417 116.957 179.417 105.03 190.747L9.94765 281.253C4.70439 286.242 1.75452 292.624 1.13641 299.183C1.77583 292.664 4.7257 286.319 9.94765 281.35C21.858 270.016 41.3603 270.016 53.2664 281.35L74.8959 301.934ZM31.6198 149.754C39.4634 149.754 47.307 146.907 53.2706 141.252L74.9002 120.688L53.2706 100.104C41.3646 88.7699 21.858 88.7699 9.95191 100.104C4.72996 105.074 1.7801 111.419 1.14067 117.938C0.953109 119.763 0.953109 121.589 1.14067 123.418C1.7801 129.937 4.72996 136.282 9.95191 141.252C15.89 146.907 23.7549 149.754 31.6198 149.754Z" stroke="white" stroke-miterlimit="10"/>
</svg>
