<svg width="157" height="332" viewBox="0 0 157 332" fill="none" xmlns="http://www.w3.org/2000/svg">
<path d="M74.2801 120.684L147.142 190.605C152.688 195.928 155.617 202.824 155.964 209.834C155.592 202.881 152.646 196.046 147.142 190.764C135.331 179.409 115.991 179.409 104.159 190.764M74.2801 120.684L52.8308 141.248C46.9168 146.903 39.1386 149.75 31.3604 149.75C23.5653 149.75 15.7659 146.903 9.87309 141.248C5.67961 137.219 2.95724 132.29 1.72709 127.086C2.9361 132.311 5.65425 137.3 9.87309 141.345L82.7516 211.307M74.2801 120.684L147.142 50.7424C158.953 39.3917 158.953 20.8485 147.142 9.4978C135.331 -1.83259 115.991 -1.83259 104.163 9.4978L9.87309 100.003C4.67352 104.993 1.74823 111.374 1.13527 117.934C1.76937 111.414 4.69465 105.07 9.87309 100.1C21.6841 88.7699 41.024 88.7699 52.8308 100.1L74.2801 120.684ZM82.7516 211.307L104.159 190.764M82.7516 211.307L104.159 231.85C115.991 243.184 135.331 243.184 147.142 231.85C152.32 226.881 155.224 220.556 155.858 214.037C156.002 212.641 156.023 211.23 155.96 209.834C155.592 202.881 152.646 196.045 147.137 190.764C135.326 179.413 115.987 179.413 104.159 190.764M31.3646 331C39.1429 331 46.9211 328.152 52.8351 322.497L74.2843 301.934L52.8351 281.35C41.0282 270.016 21.6841 270.016 9.87731 281.35C4.69888 286.319 1.77359 292.664 1.1395 299.183C0.9535 301.009 0.9535 302.834 1.1395 304.664C1.77359 311.183 4.69888 317.528 9.87731 322.497C15.7659 328.152 23.5653 331 31.3646 331ZM74.2801 301.934L147.142 231.992C158.953 220.641 158.953 202.098 147.142 190.747C135.331 179.417 115.991 179.417 104.163 190.747L9.87309 281.253C4.67352 286.242 1.74823 292.624 1.13527 299.183C1.76937 292.664 4.69465 286.319 9.87309 281.35C21.6841 270.016 41.024 270.016 52.8308 281.35L74.2801 301.934ZM31.3646 149.754C39.1429 149.754 46.9211 146.907 52.8351 141.252L74.2843 120.688L52.8351 100.104C41.0282 88.7699 21.6841 88.7699 9.87731 100.104C4.69888 105.074 1.77359 111.419 1.1395 117.938C0.9535 119.763 0.9535 121.589 1.1395 123.418C1.77359 129.937 4.69888 136.282 9.87731 141.252C15.7659 146.907 23.5653 149.754 31.3646 149.754Z" stroke="#E9B633" stroke-opacity="0.57" stroke-miterlimit="10"/>
</svg>
