<svg width="517" height="80" viewBox="0 0 517 80" fill="none" xmlns="http://www.w3.org/2000/svg">
<path d="M18.2539 62.4133C16.3205 62.4133 14.7372 60.8453 14.7372 58.9307C14.7372 57.016 16.3205 55.448 18.2539 55.448C20.1873 55.448 21.7706 57.016 21.7706 58.9307C21.7706 60.8453 20.1873 62.4133 18.2539 62.4133Z" fill="#0071BC"/>
<path d="M25.64 27.3174C23.7066 27.3174 22.1233 25.7494 22.1233 23.8347C22.1233 21.9201 23.7066 20.3521 25.64 20.3521C27.5733 20.3521 29.1566 21.9201 29.1566 23.8347C29.1566 25.7494 27.576 27.3174 25.64 27.3174Z" fill="#D4781E"/>
<path d="M38.2769 27.7467L13.6493 38.3894C12.653 38.8214 11.479 38.3654 11.0455 37.3761C10.6093 36.3894 11.0697 35.2267 12.0687 34.7974L36.6962 24.1547C37.6925 23.7227 38.8666 24.1787 39.3001 25.168C39.7336 26.1547 39.2732 27.3147 38.2769 27.7467Z" fill="#E9B633"/>
<path d="M25.6831 45.9387C23.8682 45.9387 22.3845 44.4694 22.3845 42.6721V32.5867C22.3845 30.7894 23.8682 29.3201 25.6831 29.3201C27.4979 29.3201 28.9816 30.7894 28.9816 32.5867V42.6721C28.9816 44.4694 27.4979 45.9387 25.6831 45.9387Z" fill="#E9B633"/>
<path d="M29.601 53.1974C28.5481 53.4641 27.4629 52.8294 27.1937 51.7868L25.6211 45.7121C25.3519 44.6694 25.9927 43.5948 27.0456 43.3281C28.0984 43.0614 29.1836 43.6961 29.4529 44.7388L31.0254 50.8134C31.2947 51.8561 30.6538 52.9308 29.601 53.1974Z" fill="#E9B633"/>
<path d="M19.3848 49.5148C18.6147 50.2774 17.3572 50.2774 16.5871 49.5148L12.1091 45.0801C11.339 44.3174 11.339 43.0721 12.1091 42.3094C12.8792 41.5468 14.1367 41.5468 14.9068 42.3094L19.3848 46.7441C20.1549 47.5041 20.1549 48.7521 19.3848 49.5148Z" fill="#E9B633"/>
<path d="M16.5063 49.5148C15.7362 48.7521 15.7362 47.5068 16.5063 46.7441L20.9843 42.3094C21.7544 41.5468 23.0119 41.5468 23.782 42.3094C24.5521 43.0721 24.5521 44.3174 23.782 45.0801L19.3041 49.5148C18.5339 50.2748 17.2764 50.2748 16.5063 49.5148Z" fill="#E9B633"/>
<path d="M28.5535 60.4827C27.4683 60.4027 26.6471 59.456 26.7278 58.3813L27.2018 52.128C27.2825 51.0533 28.2384 50.24 29.3236 50.32C30.4088 50.4 31.23 51.3467 31.1493 52.4213L30.6753 58.6747C30.5919 59.752 29.6387 60.5653 28.5535 60.4827Z" fill="#E9B633"/>
<path d="M200.873 27.928C198.94 27.928 197.357 26.36 197.357 24.4453C197.357 22.5306 198.94 20.9626 200.873 20.9626C202.807 20.9626 204.39 22.5306 204.39 24.4453C204.39 26.36 202.807 27.928 200.873 27.928Z" fill="#D4781E"/>
<path d="M192.631 41.9493C190.926 41.3359 190.041 39.4506 190.66 37.7626L193.792 29.2399C194.411 27.5519 196.315 26.6746 198.019 27.2879C199.724 27.9013 200.609 29.7866 199.99 31.4746L196.859 39.9973C196.239 41.6853 194.335 42.5653 192.631 41.9493Z" fill="#E9B633"/>
<path d="M205.02 37.504C205.289 38.5467 204.648 39.6214 203.596 39.888L197.462 41.4454C196.409 41.712 195.324 41.0774 195.054 40.0347C194.785 38.992 195.426 37.9174 196.479 37.6507L202.613 36.0934C203.668 35.824 204.751 36.4614 205.02 37.504Z" fill="#E9B633"/>
<path d="M200.039 42.1227C201.126 42.1227 202.018 43.0053 202.018 44.0827V59.8453C202.018 60.9227 201.126 61.8053 200.039 61.8053C198.951 61.8053 198.059 60.9227 198.059 59.8453V44.0827C198.059 43.0053 198.948 42.1227 200.039 42.1227Z" fill="#0071BC"/>
<path d="M192.187 37.8854C193.102 38.4694 193.366 39.688 192.776 40.5947L189.343 45.864C188.753 46.7707 187.523 47.032 186.607 46.448C185.692 45.864 185.428 44.6454 186.018 43.7387L189.451 38.4694C190.041 37.5627 191.271 37.3014 192.187 37.8854Z" fill="#E9B633"/>
<path d="M196.651 30.3227C196.651 29.2453 197.542 28.3627 198.63 28.3627H204.961C206.049 28.3627 206.94 29.2453 206.94 30.3227C206.94 31.4 206.049 32.2827 204.961 32.2827H198.63C197.542 32.2827 196.651 31.4 196.651 30.3227Z" fill="#E9B633"/>
<path d="M204.622 31.1973C204.118 30.2426 204.495 29.0533 205.462 28.5546L211.076 25.656C212.04 25.1573 213.241 25.5306 213.744 26.488C214.248 27.4426 213.871 28.632 212.904 29.1306L207.29 32.0293C206.326 32.528 205.125 32.152 204.622 31.1973Z" fill="#E9B633"/>
<path d="M181.373 30.7653C181.989 31.6533 183.225 31.8827 184.125 31.272L189.346 27.7253C190.243 27.1147 190.474 25.8907 189.857 25C189.241 24.112 188.005 23.8827 187.106 24.4933L181.884 28.04C180.988 28.6507 180.756 29.8747 181.373 30.7653Z" fill="#E9B633"/>
<path d="M187.297 25.0053C186.793 25.9599 187.17 27.1493 188.137 27.6479L193.751 30.5466C194.715 31.0453 195.916 30.6719 196.42 29.7146C196.923 28.7599 196.546 27.5706 195.579 27.0719L189.965 24.1733C189.001 23.6746 187.8 24.0506 187.297 25.0053Z" fill="#E9B633"/>
<path d="M211.458 41.9093C210.955 42.864 209.754 43.24 208.79 42.7413L203.176 39.8426C202.212 39.344 201.832 38.1546 202.335 37.2C202.839 36.2453 204.04 35.8693 205.004 36.368L210.618 39.2666C211.585 39.7653 211.962 40.9546 211.458 41.9093Z" fill="#E9B633"/>
<path d="M179.054 48.8187C178.618 47.832 179.079 46.6693 180.078 46.24L185.88 43.7333C186.877 43.3013 188.051 43.7573 188.484 44.7467C188.92 45.7333 188.46 46.896 187.461 47.3253L181.658 49.832C180.662 50.2613 179.488 49.808 179.054 48.8187Z" fill="#E9B633"/>
<path d="M496.323 63.2853C490.067 63.2853 484.978 58.2453 484.978 52.0506C484.978 45.8559 490.067 40.8159 496.323 40.8159C502.578 40.8159 507.667 45.8559 507.667 52.0506C507.667 58.2453 502.578 63.2853 496.323 63.2853ZM496.323 44.2986C492.006 44.2986 488.495 47.7759 488.495 52.0506C488.495 56.3253 492.006 59.8026 496.323 59.8026C500.639 59.8026 504.15 56.3253 504.15 52.0506C504.15 47.7759 500.639 44.2986 496.323 44.2986Z" fill="#0071BC"/>
<path d="M467.392 62.5893C461.137 62.5893 456.048 57.5493 456.048 51.3547C456.048 45.16 461.137 40.12 467.392 40.12C473.647 40.12 478.737 45.16 478.737 51.3547C478.737 57.5493 473.647 62.5893 467.392 62.5893ZM467.392 43.6027C463.076 43.6027 459.565 47.08 459.565 51.3547C459.565 55.6293 463.076 59.1067 467.392 59.1067C471.709 59.1067 475.22 55.6293 475.22 51.3547C475.22 47.08 471.706 43.6027 467.392 43.6027Z" fill="#0071BC"/>
<path d="M492.278 26.4453C490.345 26.4453 488.762 24.8773 488.762 22.9626C488.762 21.048 490.345 19.48 492.278 19.48C494.212 19.48 495.795 21.048 495.795 22.9626C495.795 24.88 494.214 26.4453 492.278 26.4453Z" fill="#D4781E"/>
<path d="M470.718 35.1279C469.993 33.4826 470.758 31.5466 472.422 30.8293L484.585 25.5733C486.247 24.8559 488.202 25.6133 488.926 27.2613C489.65 28.9066 488.885 30.8426 487.221 31.5599L475.058 36.8159C473.397 37.5333 471.445 36.7733 470.718 35.1279Z" fill="#E9B633"/>
<path d="M472.535 52.9227C471.447 52.9227 470.556 52.04 470.556 50.9627V33.9814C470.556 32.904 471.447 32.0214 472.535 32.0214C473.623 32.0214 474.514 32.904 474.514 33.9814V50.9627C474.514 52.04 473.623 52.9227 472.535 52.9227Z" fill="#E9B633"/>
<path d="M484.674 39.4373C484.119 40.3653 482.9 40.6746 481.962 40.1253L476.515 36.9306C475.578 36.3813 475.266 35.1733 475.82 34.2453C476.375 33.3173 477.595 33.008 478.532 33.5573L483.979 36.752C484.914 37.3013 485.229 38.5093 484.674 39.4373Z" fill="#E9B633"/>
<path d="M495.178 38.3279C494.317 38.9866 493.067 38.8293 492.402 37.9759L485.829 29.5626C485.164 28.7093 485.323 27.4719 486.185 26.8133C487.046 26.1546 488.296 26.3119 488.961 27.1653L495.534 35.5786C496.199 36.4319 496.04 37.6693 495.178 38.3279Z" fill="#E9B633"/>
<path d="M480.045 46.5733C479.033 46.1786 478.529 45.0373 478.925 44.0346L481.238 38.1973C481.637 37.1946 482.789 36.6959 483.802 37.0879C484.814 37.4826 485.318 38.6239 484.922 39.6266L482.609 45.4639C482.213 46.4666 481.058 46.9653 480.045 46.5733Z" fill="#E9B633"/>
<path d="M417.844 27.9547C415.91 27.9547 414.327 26.3867 414.327 24.472C414.327 22.5574 415.91 20.9894 417.844 20.9894C419.777 20.9894 421.36 22.5574 421.36 24.472C421.36 26.3867 419.777 27.9547 417.844 27.9547Z" fill="#0071BC"/>
<path d="M424.088 35.7041C422.155 35.7041 420.571 34.1361 420.571 32.2214C420.571 30.3068 422.155 28.7388 424.088 28.7388C426.021 28.7388 427.605 30.3068 427.605 32.2214C427.605 34.1361 426.021 35.7041 424.088 35.7041Z" fill="#D4781E"/>
<path d="M431.954 45.0641L411.513 35.9281C410.522 35.4854 410.075 34.3174 410.522 33.3361C410.969 32.3547 412.149 31.9121 413.14 32.3547L433.58 41.4907C434.571 41.9334 435.018 43.1014 434.571 44.0827C434.124 45.0641 432.947 45.5067 431.954 45.0641Z" fill="#E9B633"/>
<path d="M416.99 51.3814C415.286 50.7681 414.4 48.8827 415.019 47.1947L418.151 38.6721C418.77 36.9841 420.674 36.1067 422.378 36.7201C424.083 37.3334 424.969 39.2187 424.349 40.9067L421.218 49.4294C420.596 51.1174 418.695 51.9974 416.99 51.3814Z" fill="#E9B633"/>
<path d="M412.348 35.7041C411.26 35.7041 410.369 34.8214 410.369 33.7441V27.4748C410.369 26.3974 411.26 25.5148 412.348 25.5148C413.436 25.5148 414.327 26.3974 414.327 27.4748V33.7441C414.327 34.8241 413.436 35.7041 412.348 35.7041Z" fill="#E9B633"/>
<path d="M421.891 58.7974C420.838 59.0641 419.753 58.4294 419.484 57.3867L417.911 51.3121C417.642 50.2694 418.283 49.1947 419.335 48.9281C420.388 48.6614 421.473 49.2961 421.743 50.3387L423.315 56.4134C423.587 57.4561 422.946 58.5307 421.891 58.7974Z" fill="#E9B633"/>
<path d="M410.622 52.8507C409.852 53.6134 408.594 53.6134 407.824 52.8507L403.346 48.416C402.576 47.6534 402.576 46.408 403.346 45.6454C404.116 44.8827 405.374 44.8827 406.144 45.6454L410.622 50.08C411.389 50.84 411.389 52.088 410.622 52.8507Z" fill="#E9B633"/>
<path d="M408.336 52.8533C407.899 51.8667 408.36 50.704 409.359 50.2747L415.162 47.768C416.158 47.336 417.332 47.792 417.766 48.7813C418.202 49.768 417.741 50.9307 416.742 51.36L410.94 53.8667C409.943 54.296 408.772 53.84 408.336 52.8533Z" fill="#E9B633"/>
<path d="M413.525 60.6027C413.088 59.6161 413.549 58.4534 414.548 58.0241L420.351 55.5174C421.347 55.0854 422.521 55.5414 422.954 56.5307C423.391 57.5174 422.93 58.6801 421.931 59.1094L416.128 61.6161C415.132 62.0454 413.958 61.5921 413.525 60.6027Z" fill="#E9B633"/>
<path d="M442.549 36.4028C441.607 36.9414 440.39 36.6188 439.846 35.6854L436.679 30.2561C436.135 29.3228 436.461 28.1174 437.404 27.5788C438.346 27.0401 439.563 27.3628 440.107 28.2961L443.274 33.7254C443.818 34.6588 443.492 35.8641 442.549 36.4028Z" fill="#E9B633"/>
<path d="M446.774 28.7814C446.774 29.8587 445.883 30.7414 444.795 30.7414H438.464C437.377 30.7414 436.485 29.8587 436.485 28.7814C436.485 27.7041 437.377 26.8214 438.464 26.8214H444.795C445.886 26.8214 446.774 27.7041 446.774 28.7814Z" fill="#E9B633"/>
<path d="M445.401 27.3494C446.392 27.7921 446.839 28.9601 446.392 29.9414L443.788 35.6561C443.341 36.6374 442.162 37.0801 441.171 36.6374C440.18 36.1948 439.733 35.0268 440.18 34.0454L442.784 28.3308C443.233 27.3468 444.41 26.9041 445.401 27.3494Z" fill="#E9B633"/>
<path d="M362.972 32.5547C361.038 32.5547 359.455 30.9867 359.455 29.072C359.455 27.1574 361.038 25.5894 362.972 25.5894C364.905 25.5894 366.488 27.1574 366.488 29.072C366.488 30.9867 364.905 32.5547 362.972 32.5547Z" fill="#D4781E"/>
<path d="M347.392 33.1893C348.119 33.992 348.051 35.2373 347.241 35.9573L342.529 40.1466C341.718 40.8666 340.461 40.8 339.734 39.9973C339.007 39.1946 339.074 37.9493 339.884 37.2293L344.597 33.04C345.407 32.32 346.665 32.3866 347.392 33.1893Z" fill="#0071BC"/>
<path d="M368.621 24.5654C368.29 25.5921 367.172 26.1654 366.136 25.8374L360.104 23.9307C359.067 23.6027 358.488 22.4961 358.82 21.4694C359.151 20.4427 360.268 19.8694 361.305 20.1974L367.337 22.1041C368.373 22.4321 368.95 23.5387 368.621 24.5654Z" fill="#E9B633"/>
<path d="M355.602 28.6267C354.721 27.9947 354.519 26.7627 355.157 25.8907L358.868 20.8107C359.506 19.9387 360.75 19.7387 361.631 20.3707C362.511 21.0027 362.713 22.2347 362.075 23.1067L358.364 28.1867C357.729 29.0614 356.485 29.2587 355.602 28.6267Z" fill="#E9B633"/>
<path d="M348.665 31.7067C348.068 30.4507 348.617 28.9413 349.885 28.3493L354.584 26.1573C355.852 25.5653 357.376 26.1093 357.974 27.3653C358.572 28.6213 358.023 30.1307 356.754 30.7227L352.055 32.9147C350.787 33.504 349.263 32.9627 348.665 31.7067Z" fill="#E9B633"/>
<path d="M352.877 39.7014C352.193 40.5414 350.941 40.672 350.095 39.9974L345.168 36.0614C344.319 35.384 344.187 34.144 344.869 33.3067C345.553 32.4667 346.805 32.336 347.65 33.0107L352.578 36.9467C353.426 37.624 353.561 38.864 352.877 39.7014Z" fill="#0071BC"/>
<path d="M357.858 33.1013C358.585 33.904 358.518 35.1493 357.707 35.8693L352.995 40.0586C352.185 40.7786 350.927 40.712 350.2 39.9093C349.473 39.1066 349.54 37.8613 350.351 37.1413L355.063 32.952C355.874 32.232 357.131 32.2986 357.858 33.1013Z" fill="#0071BC"/>
<path d="M363.341 39.616C362.657 40.456 361.405 40.5867 360.559 39.912L355.631 35.976C354.783 35.2987 354.651 34.0587 355.332 33.2214C356.016 32.3814 357.269 32.2507 358.114 32.9254L363.042 36.8614C363.89 37.536 364.025 38.776 363.341 39.616Z" fill="#0071BC"/>
<path d="M368.411 33.016C369.138 33.8186 369.071 35.064 368.26 35.784L363.548 39.9733C362.737 40.6933 361.48 40.6266 360.753 39.824C360.026 39.0213 360.093 37.776 360.904 37.056L365.616 32.8666C366.426 32.1466 367.684 32.2133 368.411 33.016Z" fill="#0071BC"/>
<path d="M373.893 39.528C373.209 40.368 371.957 40.4987 371.112 39.824L366.184 35.888C365.336 35.2107 365.204 33.9707 365.885 33.1334C366.569 32.2934 367.821 32.1627 368.667 32.8374L373.594 36.7734C374.443 37.448 374.577 38.688 373.893 39.528Z" fill="#0071BC"/>
<path d="M378.875 32.9281C379.602 33.7307 379.535 34.9761 378.724 35.6961L374.012 39.8854C373.201 40.6054 371.944 40.5387 371.217 39.7361C370.49 38.9334 370.557 37.6881 371.368 36.9681L376.08 32.7787C376.89 32.0587 378.148 32.1254 378.875 32.9281Z" fill="#0071BC"/>
<path d="M384.36 39.44C383.676 40.28 382.424 40.4107 381.578 39.736L376.651 35.8C375.802 35.1227 375.671 33.8827 376.352 33.0453C377.036 32.2053 378.288 32.0747 379.133 32.7493L384.061 36.6854C384.909 37.3627 385.041 38.6027 384.36 39.44Z" fill="#0071BC"/>
<path d="M374.316 54.6747C372.383 54.6747 370.799 53.1067 370.799 51.192C370.799 49.2773 372.383 47.7094 374.316 47.7094C376.249 47.7094 377.833 49.2773 377.833 51.192C377.833 53.1067 376.249 54.6747 374.316 54.6747Z" fill="#D4781E"/>
<path d="M358.736 55.3093C359.463 56.112 359.396 57.3573 358.585 58.0773L353.873 62.2666C353.062 62.9866 351.805 62.92 351.078 62.1173C350.351 61.3146 350.418 60.0693 351.229 59.3493L355.941 55.16C356.752 54.44 358.009 54.5066 358.736 55.3093Z" fill="#0071BC"/>
<path d="M379.963 46.6854C379.631 47.7121 378.514 48.2854 377.477 47.9574L371.446 46.0507C370.409 45.7227 369.83 44.6161 370.161 43.5894C370.492 42.5627 371.61 41.9894 372.647 42.3174L378.678 44.2241C379.718 44.5521 380.294 45.6587 379.963 46.6854Z" fill="#E9B633"/>
<path d="M366.946 50.7467C366.066 50.1147 365.864 48.8827 366.502 48.0107L370.212 42.9307C370.851 42.0587 372.095 41.8587 372.975 42.4907C373.856 43.1227 374.058 44.3547 373.419 45.2267L369.709 50.3067C369.073 51.1813 367.829 51.3787 366.946 50.7467Z" fill="#E9B633"/>
<path d="M360.01 53.8267C359.412 52.5707 359.961 51.0613 361.23 50.4693L365.928 48.2773C367.197 47.6853 368.721 48.2293 369.318 49.4853C369.916 50.7413 369.367 52.2507 368.099 52.8427L363.4 55.0347C362.132 55.6267 360.607 55.0827 360.01 53.8267Z" fill="#E9B633"/>
<path d="M364.221 61.824C363.537 62.664 362.285 62.7947 361.44 62.12L356.512 58.184C355.664 57.5067 355.532 56.2667 356.213 55.4294C356.897 54.5894 358.149 54.4587 358.995 55.1334L363.922 59.0694C364.77 59.744 364.905 60.984 364.221 61.824Z" fill="#0071BC"/>
<path d="M369.203 55.2213C369.93 56.024 369.862 57.2693 369.052 57.9893L364.34 62.1787C363.529 62.8987 362.272 62.832 361.545 62.0293C360.818 61.2267 360.885 59.9813 361.695 59.2613L366.408 55.072C367.218 54.352 368.476 54.4213 369.203 55.2213Z" fill="#0071BC"/>
<path d="M374.685 61.736C374.001 62.576 372.749 62.7067 371.903 62.032L366.976 58.096C366.128 57.4187 365.996 56.1787 366.677 55.3414C367.361 54.5014 368.613 54.3707 369.458 55.0454L374.386 58.9814C375.234 59.656 375.369 60.896 374.685 61.736Z" fill="#0071BC"/>
<path d="M379.755 55.1361C380.482 55.9388 380.415 57.1841 379.605 57.9041L374.892 62.0934C374.082 62.8134 372.824 62.7468 372.097 61.9441C371.37 61.1414 371.438 59.8961 372.248 59.1761L376.96 54.9868C377.771 54.2668 379.028 54.3334 379.755 55.1361Z" fill="#0071BC"/>
<path d="M385.238 61.648C384.554 62.488 383.302 62.6187 382.456 61.944L377.528 58.008C376.68 57.3307 376.548 56.0907 377.23 55.2534C377.914 54.4134 379.166 54.2827 380.011 54.9574L384.939 58.8934C385.787 59.5707 385.922 60.8107 385.238 61.648Z" fill="#0071BC"/>
<path d="M390.219 55.0481C390.946 55.8507 390.879 57.0961 390.068 57.8161L385.356 62.0054C384.546 62.7254 383.288 62.6587 382.561 61.8561C381.834 61.0534 381.901 59.8081 382.712 59.0881L387.424 54.8987C388.235 54.1787 389.492 54.2454 390.219 55.0481Z" fill="#0071BC"/>
<path d="M395.704 61.5627C395.02 62.4027 393.768 62.5334 392.923 61.8587L387.995 57.9227C387.147 57.2454 387.015 56.0054 387.696 55.168C388.38 54.328 389.632 54.1974 390.478 54.872L395.405 58.808C396.254 59.4827 396.385 60.7227 395.704 61.5627Z" fill="#0071BC"/>
<path d="M236.474 49.8748C234.54 49.8748 232.957 48.3068 232.957 46.3921C232.957 44.4774 234.54 42.9094 236.474 42.9094C238.407 42.9094 239.99 44.4774 239.99 46.3921C239.993 48.3068 238.41 49.8748 236.474 49.8748Z" fill="#D4781E"/>
<path d="M240.925 43.5308C239.643 42.2614 239.643 40.1814 240.925 38.9121L247.401 32.4988C248.682 31.2294 250.783 31.2294 252.064 32.4988C253.346 33.7681 253.346 35.8481 252.064 37.1174L245.588 43.5308C244.304 44.8028 242.206 44.8028 240.925 43.5308Z" fill="#E9B633"/>
<path d="M242.718 62.328C240.785 62.328 239.201 60.76 239.201 58.8453C239.201 56.9307 240.785 55.3627 242.718 55.3627C244.651 55.3627 246.235 56.9307 246.235 58.8453C246.235 60.76 244.654 62.328 242.718 62.328Z" fill="#D4781E"/>
<path d="M248.219 59.7067C247.611 58.016 248.51 56.136 250.217 55.5333L258.842 52.488C260.549 51.8853 262.448 52.776 263.056 54.4667C263.665 56.1573 262.765 58.0373 261.058 58.64L252.433 61.6853C250.723 62.2907 248.828 61.4 248.219 59.7067Z" fill="#E9B633"/>
<path d="M250.061 32.8054C248.973 32.8054 248.082 31.9227 248.082 30.8454V24.5734C248.082 23.4961 248.973 22.6134 250.061 22.6134C251.149 22.6134 252.04 23.4961 252.04 24.5734V30.8427C252.04 31.9227 251.149 32.8054 250.061 32.8054Z" fill="#E9B633"/>
<path d="M249.579 60.3388C248.521 60.6081 247.444 59.9761 247.172 58.9281L244.533 48.7334C244.261 47.6854 244.899 46.6188 245.957 46.3494C247.016 46.0801 248.093 46.7121 248.365 47.7601L251.003 57.9548C251.275 59.0028 250.637 60.0694 249.579 60.3388Z" fill="#E9B633"/>
<path d="M250.95 52.5387C250.123 53.2454 248.874 53.1547 248.16 52.336L241.216 44.3707C240.502 43.552 240.594 42.3147 241.42 41.608C242.247 40.9014 243.496 40.992 244.21 41.8107L251.154 49.776C251.871 50.5947 251.779 51.832 250.95 52.5387Z" fill="#E9B633"/>
<path d="M260.094 54.7494C259.117 55.2347 257.929 54.8427 257.439 53.8747L252.678 44.4667C252.188 43.4987 252.584 42.3227 253.562 41.8374C254.539 41.3521 255.727 41.7441 256.217 42.7121L260.977 52.1201C261.465 53.0854 261.072 54.2641 260.094 54.7494Z" fill="#E9B633"/>
<path d="M256.833 30.6267C255.745 30.6267 254.854 29.744 254.854 28.6667V22.3974C254.854 21.32 255.745 20.4374 256.833 20.4374C257.921 20.4374 258.812 21.32 258.812 22.3974V28.6667C258.812 29.744 257.921 30.6267 256.833 30.6267Z" fill="#E9B633"/>
<path d="M250.788 35.9574C249.956 35.2614 249.851 34.0187 250.554 33.1947L254.639 28.4054C255.341 27.5814 256.596 27.4774 257.428 28.1734C258.26 28.8694 258.365 30.112 257.663 30.936L253.578 35.7254C252.872 36.5467 251.617 36.6507 250.788 35.9574Z" fill="#E9B633"/>
<path d="M241.988 22.4881C242.247 21.4427 243.324 20.7947 244.382 21.0534L250.532 22.5494C251.588 22.8054 252.242 23.872 251.981 24.92C251.722 25.9654 250.645 26.6134 249.587 26.3547L243.437 24.8587C242.379 24.6001 241.727 23.5334 241.988 22.4881Z" fill="#E9B633"/>
<path d="M273.132 60.5494C272.206 61.1147 270.981 60.8267 270.41 59.9094L267.09 54.5707C266.519 53.6534 266.81 52.44 267.736 51.8747C268.662 51.3094 269.887 51.5974 270.458 52.5147L273.778 57.8534C274.349 58.7707 274.058 59.984 273.132 60.5494Z" fill="#E9B633"/>
<path d="M260.794 55.9574C260.46 54.9308 261.037 53.8214 262.073 53.4934L268.102 51.5734C269.139 51.2428 270.259 51.8134 270.59 52.8401C270.924 53.8668 270.348 54.9761 269.311 55.3041L263.282 57.2241C262.248 57.5548 261.128 56.9841 260.794 55.9574Z" fill="#E9B633"/>
<path d="M326.825 27.192C324.891 27.192 323.308 25.624 323.308 23.7094C323.308 21.7947 324.891 20.2267 326.825 20.2267C328.758 20.2267 330.341 21.7947 330.341 23.7094C330.341 25.624 328.758 27.192 326.825 27.192Z" fill="#0071BC"/>
<path d="M310.117 34.4187C308.183 34.4187 306.6 32.8507 306.6 30.936C306.6 29.0214 308.183 27.4534 310.117 27.4534C312.05 27.4534 313.633 29.0214 313.633 30.936C313.633 32.8534 312.05 34.4187 310.117 34.4187Z" fill="#D4781E"/>
<path d="M319.299 44.9493L306.953 39.432C305.962 38.9893 305.515 37.8213 305.962 36.84C306.409 35.8586 307.588 35.416 308.579 35.8586L320.925 41.376C321.916 41.8186 322.363 42.9866 321.916 43.968C321.469 44.952 320.29 45.3946 319.299 44.9493Z" fill="#E9B633"/>
<path d="M303.107 50.184C301.403 49.5707 300.517 47.6853 301.136 45.9973L304.268 37.4747C304.887 35.7867 306.791 34.9093 308.496 35.5227C310.2 36.136 311.086 38.0213 310.467 39.7093L307.335 48.232C306.713 49.92 304.812 50.7973 303.107 50.184Z" fill="#E9B633"/>
<path d="M299.825 57.0773C300.878 57.344 301.963 56.7093 302.232 55.6666L303.805 49.592C304.074 48.5493 303.433 47.4746 302.38 47.208C301.328 46.9413 300.242 47.576 299.973 48.6186L298.401 54.6933C298.129 55.736 298.769 56.8106 299.825 57.0773Z" fill="#E9B633"/>
<path d="M312.303 54.6134C311.533 55.3761 310.275 55.3761 309.505 54.6134L305.027 50.1787C304.257 49.4161 304.257 48.1707 305.027 47.4081C305.797 46.6454 307.055 46.6454 307.825 47.4081L312.303 51.8427C313.073 52.6027 313.073 53.8507 312.303 54.6134Z" fill="#E9B633"/>
<path d="M311.183 52.6027C312.238 52.3387 313.321 52.9761 313.587 54.0214L315.144 60.0987C315.41 61.1441 314.767 62.2161 313.711 62.4801C312.656 62.7441 311.573 62.1067 311.307 61.0614L309.75 54.9841C309.484 53.9387 310.127 52.8694 311.183 52.6027Z" fill="#E9B633"/>
<path d="M291.023 59.5787C290.586 58.592 291.047 57.4293 292.046 57L297.849 54.4933C298.845 54.0613 300.019 54.5173 300.452 55.5067C300.889 56.4933 300.428 57.656 299.429 58.0853L293.626 60.592C292.63 61.0213 291.459 60.568 291.023 59.5787Z" fill="#E9B633"/>
<path d="M145.129 32.416C143.196 32.416 141.612 30.848 141.612 28.9333C141.612 27.0187 143.196 25.4507 145.129 25.4507C147.062 25.4507 148.646 27.0187 148.646 28.9333C148.646 30.8507 147.062 32.416 145.129 32.416Z" fill="#D4781E"/>
<path d="M153.964 42.1226L133.523 32.9866C132.532 32.544 132.085 31.376 132.532 30.3946C132.979 29.4133 134.159 28.9706 135.15 29.4133L155.59 38.5493C156.581 38.992 157.028 40.16 156.581 41.1413C156.131 42.1253 154.955 42.568 153.964 42.1226Z" fill="#E9B633"/>
<path d="M137.592 47.6586C135.888 47.0453 135.002 45.16 135.621 43.472L138.753 34.9493C139.372 33.2613 141.276 32.384 142.98 32.9973C144.685 33.6106 145.571 35.496 144.951 37.184L141.82 45.7066C141.198 47.3946 139.297 48.2746 137.592 47.6586Z" fill="#E9B633"/>
<path d="M134.355 32.7653C133.268 32.7653 132.376 31.8826 132.376 30.8053V24.5359C132.376 23.4586 133.268 22.5759 134.355 22.5759C135.443 22.5759 136.335 23.4586 136.335 24.5359V30.8053C136.335 31.8826 135.443 32.7653 134.355 32.7653Z" fill="#E9B633"/>
<path d="M145.029 53.48C144.259 54.2426 143.002 54.2426 142.232 53.48L137.754 49.0453C136.983 48.2826 136.983 47.0373 137.754 46.2746C138.524 45.512 139.781 45.512 140.551 46.2746L145.029 50.7093C145.799 51.472 145.799 52.72 145.029 53.48Z" fill="#E9B633"/>
<path d="M131.94 50.8373C131.66 51.88 130.572 52.504 129.519 52.2293L123.399 50.6187C122.346 50.3413 121.716 49.264 121.993 48.2213C122.273 47.1786 123.361 46.5546 124.414 46.8293L130.534 48.44C131.587 48.7173 132.22 49.7973 131.94 50.8373Z" fill="#E9B633"/>
<path d="M129.487 51.9147C128.717 51.152 128.717 49.9067 129.487 49.144L133.965 44.7093C134.735 43.9467 135.993 43.9467 136.763 44.7093C137.533 45.472 137.533 46.7173 136.763 47.48L132.285 51.9147C131.517 52.6747 130.257 52.6747 129.487 51.9147Z" fill="#E9B633"/>
<path d="M144.973 61.576C143.888 61.664 142.929 60.856 142.84 59.7813L142.329 53.5307C142.24 52.456 143.056 51.5067 144.141 51.4187C145.226 51.3307 146.184 52.1387 146.273 53.2133L146.785 59.464C146.874 60.5387 146.058 61.488 144.973 61.576Z" fill="#E9B633"/>
<path d="M128.903 26.32C130.335 26.32 131.496 25.1702 131.496 23.752C131.496 22.3337 130.335 21.184 128.903 21.184C127.471 21.184 126.31 22.3337 126.31 23.752C126.31 25.1702 127.471 26.32 128.903 26.32Z" fill="#0071BC"/>
<path d="M83.7082 27.3174C81.7749 27.3174 80.1916 25.7494 80.1916 23.8347C80.1916 21.9201 81.7749 20.3521 83.7082 20.3521C85.6416 20.3521 87.2249 21.9201 87.2249 23.8347C87.2249 25.7494 85.6416 27.3174 83.7082 27.3174Z" fill="#D4781E"/>
<path d="M105.473 62.4134H59.0403C57.9525 62.4134 57.0612 61.5307 57.0612 60.4534C57.0612 59.3761 57.9525 58.4934 59.0403 58.4934H105.473C106.561 58.4934 107.453 59.3761 107.453 60.4534C107.453 61.5334 106.561 62.4134 105.473 62.4134Z" fill="#0071BC"/>
<path d="M84.5995 32.2694C83.8294 31.5067 83.8294 30.2614 84.5995 29.4987L93.2216 20.9601C93.9917 20.1974 95.2492 20.1974 96.0193 20.9601C96.7894 21.7227 96.7894 22.9681 96.0193 23.7307L87.3972 32.2694C86.6271 33.0321 85.3696 33.0321 84.5995 32.2694Z" fill="#E9B633"/>
<path d="M70.6163 20.9601C69.8462 21.7227 69.8462 22.9681 70.6163 23.7307L79.2383 32.2694C80.0084 33.0321 81.2659 33.0321 82.0361 32.2694C82.8062 31.5067 82.8062 30.2614 82.0361 29.4987L73.414 20.9601C72.6466 20.1974 71.3864 20.1974 70.6163 20.9601Z" fill="#E9B633"/>
<path d="M99.3879 39.4214L68.726 52.6694C67.7297 53.1014 66.5557 52.6454 66.1221 51.6561C65.6859 50.6694 66.1464 49.5067 67.1454 49.0774L97.8072 35.8294C98.8035 35.3974 99.9776 35.8534 100.411 36.8427C100.847 37.8294 100.387 38.9894 99.3879 39.4214Z" fill="#E9B633"/>
<path d="M83.2235 45.016C81.4086 45.016 79.925 43.5467 79.925 41.7493V32.68C79.925 30.8827 81.4086 29.4133 83.2235 29.4133C85.0384 29.4133 86.5221 30.8827 86.5221 32.68V41.7493C86.5221 43.5467 85.0384 45.016 83.2235 45.016Z" fill="#E9B633"/>
</svg>
