<svg width="32" height="31" viewBox="0 0 32 31" fill="none" xmlns="http://www.w3.org/2000/svg">
<path d="M27.2894 15.1426V28.4366C27.2894 28.9053 26.8971 29.2852 26.4131 29.2852H4.79734C4.31336 29.2852 3.92102 28.9053 3.92102 28.4366V15.1426" stroke="#E9B633" stroke-width="2" stroke-linecap="round" stroke-linejoin="round"/>
<path d="M29.3342 8.07129H1.87632C1.39234 8.07129 1 8.4512 1 8.91984V14.294C1 14.7627 1.39234 15.1426 1.87632 15.1426H29.3342C29.8182 15.1426 30.2105 14.7627 30.2105 14.294V8.91984C30.2105 8.4512 29.8182 8.07129 29.3342 8.07129Z" stroke="#E9B633" stroke-width="2" stroke-linecap="round" stroke-linejoin="round"/>
<path d="M15.6052 29.2852V8.07129" stroke="#E9B633" stroke-width="2" stroke-linecap="round" stroke-linejoin="round"/>
<path d="M15.6053 8.07129H9.03291C8.06452 8.07129 7.13579 7.69879 6.45103 7.03573C5.76628 6.37267 5.38159 5.47336 5.38159 4.53565C5.38159 3.59794 5.76628 2.69862 6.45103 2.03556C7.13579 1.3725 8.06452 1 9.03291 1C14.1447 1 15.6053 8.07129 15.6053 8.07129Z" stroke="#E9B633" stroke-width="2" stroke-linecap="round" stroke-linejoin="round"/>
<path d="M15.6052 8.07129H22.1776C23.1459 8.07129 24.0747 7.69879 24.7595 7.03573C25.4442 6.37267 25.8289 5.47336 25.8289 4.53565C25.8289 3.59794 25.4442 2.69862 24.7595 2.03556C24.0747 1.3725 23.1459 1 22.1776 1C17.0658 1 15.6052 8.07129 15.6052 8.07129Z" stroke="#E9B633" stroke-width="2" stroke-linecap="round" stroke-linejoin="round"/>
</svg>
