<svg width="47" height="47" viewBox="0 0 47 47" fill="none" xmlns="http://www.w3.org/2000/svg">
<rect y="47" width="47" height="47" rx="10" transform="rotate(-90 0 47)" fill="#E9B633"/>
<path d="M37.5832 23.1505L31.7344 20.969V14.4307C31.7344 13.5268 31.1713 12.7193 30.3176 12.3999L24.2629 10.1401C23.7725 9.9533 23.2275 9.9533 22.7311 10.1401L16.6764 12.3999C15.8227 12.7193 15.2596 13.5268 15.2596 14.4307V20.969L9.41074 23.1505C8.56309 23.4699 8 24.2774 8 25.1813V31.816C8 32.6356 8.46621 33.3889 9.20488 33.7564L15.2596 36.7695C15.8711 37.0768 16.5977 37.0768 17.2092 36.7695L23.5 33.6359L29.7908 36.7695C30.4023 37.0768 31.1289 37.0768 31.7404 36.7695L37.7951 33.7564C38.5338 33.3889 39 32.6356 39 31.816V25.1813C39 24.2774 38.4369 23.4699 37.5832 23.1505ZM29.6758 21.0172L24.5293 22.9396V18.8298L29.6758 16.6001V21.0172ZM17.3242 14.3463L23.5 12.0444L29.6758 14.3463V14.3825L23.5 16.8773L17.3242 14.3825V14.3463ZM22.4102 31.8883L17.2637 34.4494V29.6828L22.4102 27.3447V31.8883ZM22.4102 25.1391L16.2344 27.6339L10.0586 25.1391V25.1029L16.2344 22.801L22.4102 25.1029V25.1391ZM36.9414 31.8883L31.7949 34.4494V29.6828L36.9414 27.3447V31.8883ZM36.9414 25.1391L30.7656 27.6339L24.5898 25.1391V25.1029L30.7656 22.801L36.9414 25.1029V25.1391Z" fill="#B71F27"/>
</svg>
