<svg width="47" height="47" viewBox="0 0 47 47" fill="none" xmlns="http://www.w3.org/2000/svg">
<rect y="47" width="47" height="47" rx="10" transform="rotate(-90 0 47)" fill="#E9B633"/>
<path d="M22.7456 19.9792V23.4351C24.0701 23.7345 25.2474 24.2267 26.4806 24.5667V21.1058C25.1612 20.8115 23.9737 20.3192 22.7456 19.9792ZM34.0774 13.7374C32.3367 14.5443 30.1952 15.3562 28.14 15.3562C25.425 15.3562 23.177 13.5902 19.7566 13.5902C18.488 13.5902 17.3563 13.8135 16.3059 14.1992C16.448 13.8287 16.5139 13.4278 16.4886 13.0016C16.3972 11.5604 15.2148 10.4033 13.7685 10.3424C12.1446 10.2765 10.81 11.5756 10.81 13.1842C10.81 14.1484 11.2921 15.001 12.0279 15.5135V35.1068C12.0279 35.7817 12.5709 36.3247 13.2458 36.3247H14.0578C14.7327 36.3247 15.2757 35.7817 15.2757 35.1068V30.3163C16.7118 29.7023 18.5032 29.1948 21.0811 29.1948C23.8012 29.1948 26.0442 30.9608 29.4645 30.9608C31.9105 30.9608 33.8642 30.1336 35.681 28.8853C36.1224 28.5808 36.3813 28.0835 36.3813 27.5456V15.209C36.3863 14.0266 35.1532 13.2401 34.0774 13.7374ZM19.0107 26.8605C17.7014 26.9975 16.4733 27.2766 15.2757 27.7029V24.1252C16.6053 23.6533 17.6862 23.364 19.0107 23.2422V26.8605ZM33.9505 20.0351C32.7529 20.5324 31.6009 21.0246 30.2155 21.2479V24.856C31.4741 24.6834 32.8239 24.2572 33.9505 23.5366V27.1142C32.6767 27.9312 31.4893 28.3677 30.2155 28.4895V24.856C28.8454 25.0437 27.7848 24.9321 26.4806 24.5718V27.9921C25.2677 27.6166 24.0803 27.1447 22.7456 26.9112V23.4351C21.7459 23.2118 20.6752 23.09 19.0107 23.2422V19.69C17.8739 19.8473 16.7474 20.2076 15.2757 20.7506V17.1729C16.9605 16.5538 17.8181 16.1682 19.0107 16.0565V19.69C20.3808 19.5022 21.4668 19.624 22.7456 19.9792V16.5589C23.9483 16.9344 25.1409 17.4064 26.4806 17.6398V21.1109C27.6833 21.3798 28.8961 21.461 30.2155 21.2479V17.5992C31.5857 17.3556 32.8696 16.9091 33.9505 16.4574V20.0351Z" fill="#B71F27"/>
</svg>
