<svg width="47" height="47" viewBox="0 0 47 47" fill="none" xmlns="http://www.w3.org/2000/svg">
<rect width="47" height="47" rx="5" fill="#E9B633"/>
<path d="M9.18311 36.0667V9.93333C9.18311 9.41787 9.60686 9 10.1296 9H36.631C37.1538 9 37.5775 9.41787 37.5775 9.93333V36.0667C37.5775 36.5822 37.1538 37 36.631 37H10.1296C9.60686 37 9.18311 36.5822 9.18311 36.0667Z" stroke="white" stroke-width="3.35921"/>
<path d="M28.1126 17.5556C27.0321 16.49 25.1292 15.7489 23.3802 15.7025M23.3802 15.7025C21.2994 15.6473 19.4366 16.5756 19.4366 19.1112C19.4366 23.7778 28.1126 21.4445 28.1126 26.1111C28.1126 28.7727 25.8035 29.9163 23.3802 29.8305M23.3802 15.7025V12.8889M18.6478 27.6667C19.6645 29.0034 21.5548 29.7658 23.3802 29.8305M23.3802 29.8305V33.1111" stroke="white" stroke-width="3.35921" stroke-linecap="round" stroke-linejoin="round"/>
</svg>
