<svg width="157" height="293" viewBox="0 0 157 293" fill="none" xmlns="http://www.w3.org/2000/svg">
<g clip-path="url(#clip0_97_1007)">
<mask id="mask0_97_1007" style="mask-type:luminance" maskUnits="userSpaceOnUse" x="64" y="24" width="28" height="29">
<path d="M64.2028 24.3456H91.9662V52.9079H64.2028V24.3456Z" fill="white"/>
</mask>
<g mask="url(#mask0_97_1007)">
<mask id="mask1_97_1007" style="mask-type:luminance" maskUnits="userSpaceOnUse" x="61" y="21" width="34" height="35">
<path d="M61.7348 46.4895L85.7499 21.7833L94.4824 30.7672L70.4674 55.4733L61.7348 46.4895Z" fill="white"/>
</mask>
<g mask="url(#mask1_97_1007)">
<mask id="mask2_97_1007" style="mask-type:luminance" maskUnits="userSpaceOnUse" x="64" y="24" width="28" height="29">
<path d="M81.3358 26.3244C83.7473 23.8435 87.6575 23.8435 90.0683 26.3244C92.4798 28.8054 92.4798 32.8274 90.0683 35.3083L74.834 50.981C72.4225 53.4619 68.513 53.4619 66.1015 50.981C63.6899 48.5001 63.6899 44.4781 66.1015 41.9971L81.3358 26.3244Z" fill="white"/>
</mask>
<g mask="url(#mask2_97_1007)">
<path d="M61.7348 46.4895L85.6588 21.8771L94.3913 30.8609L70.4674 55.4733L61.7348 46.4895Z" fill="#FF9E1B"/>
</g>
</g>
</g>
<mask id="mask3_97_1007" style="mask-type:luminance" maskUnits="userSpaceOnUse" x="64" y="109" width="28" height="30">
<path d="M64.2028 109.834H91.9662V138.397H64.2028V109.834Z" fill="white"/>
</mask>
<g mask="url(#mask3_97_1007)">
<mask id="mask4_97_1007" style="mask-type:luminance" maskUnits="userSpaceOnUse" x="61" y="107" width="34" height="34">
<path d="M61.7348 131.983L85.7499 107.277L94.4824 116.261L70.4674 140.967L61.7348 131.983Z" fill="white"/>
</mask>
<g mask="url(#mask4_97_1007)">
<mask id="mask5_97_1007" style="mask-type:luminance" maskUnits="userSpaceOnUse" x="64" y="109" width="28" height="30">
<path d="M81.3358 111.818C83.7473 109.338 87.6575 109.338 90.0683 111.818C92.4798 114.299 92.4798 118.321 90.0683 120.802L74.834 136.475C72.4225 138.956 68.513 138.956 66.1015 136.475C63.6899 133.994 63.6899 129.972 66.1015 127.491L81.3358 111.818Z" fill="white"/>
</mask>
<g mask="url(#mask5_97_1007)">
<path d="M61.7348 131.983L85.6588 107.371L94.3913 116.355L70.4674 140.967L61.7348 131.983Z" fill="#FF9E1B"/>
</g>
</g>
</g>
<mask id="mask6_97_1007" style="mask-type:luminance" maskUnits="userSpaceOnUse" x="64" y="67" width="28" height="29">
<path d="M64.2028 67.1891H91.9662V95.7514H64.2028V67.1891Z" fill="white"/>
</mask>
<g mask="url(#mask6_97_1007)">
<mask id="mask7_97_1007" style="mask-type:luminance" maskUnits="userSpaceOnUse" x="61" y="64" width="34" height="35">
<path d="M61.7348 89.2679L85.7499 64.5625L94.4824 73.5463L70.4674 98.2517L61.7348 89.2679Z" fill="white"/>
</mask>
<g mask="url(#mask7_97_1007)">
<mask id="mask8_97_1007" style="mask-type:luminance" maskUnits="userSpaceOnUse" x="64" y="67" width="28" height="29">
<path d="M81.3358 69.1029C83.7473 66.622 87.6575 66.622 90.0683 69.1029C92.4798 71.5838 92.4798 75.6058 90.0683 78.0867L74.834 93.7602C72.4225 96.2411 68.513 96.2411 66.1015 93.7602C63.6899 91.2793 63.6899 87.2573 66.1015 84.7764L81.3358 69.1029Z" fill="white"/>
</mask>
<g mask="url(#mask8_97_1007)">
<path d="M61.7348 89.2679L85.6588 64.6562L94.3913 73.6401L70.4674 98.2517L61.7348 89.2679Z" fill="#FF9E1B"/>
</g>
</g>
</g>
<mask id="mask9_97_1007" style="mask-type:luminance" maskUnits="userSpaceOnUse" x="43" y="2" width="29" height="29">
<path d="M43.9587 2.32886H71.7221V30.8912H43.9587V2.32886Z" fill="white"/>
</mask>
<g mask="url(#mask9_97_1007)">
<mask id="mask10_97_1007" style="mask-type:luminance" maskUnits="userSpaceOnUse" x="41" y="-1" width="34" height="35">
<path d="M50.1931 -0.249634L74.2074 24.4565L65.4748 33.4403L41.4605 8.7342L50.1931 -0.249634Z" fill="white"/>
</mask>
<g mask="url(#mask10_97_1007)">
<mask id="mask11_97_1007" style="mask-type:luminance" maskUnits="userSpaceOnUse" x="44" y="2" width="28" height="29">
<path d="M69.794 19.9154C72.2055 22.3963 72.2055 26.419 69.794 28.8992C67.3825 31.3801 63.473 31.3801 61.0615 28.8992L45.8264 13.2265C43.4156 10.7456 43.4156 6.72356 45.8264 4.24265C48.2379 1.76173 52.1482 1.76173 54.559 4.24265L69.794 19.9154Z" fill="white"/>
</mask>
<g mask="url(#mask11_97_1007)">
<path d="M50.1931 -0.249634L74.117 24.3627L65.3837 33.3466L41.4605 8.7342L50.1931 -0.249634Z" fill="#DA291C"/>
</g>
</g>
</g>
<mask id="mask12_97_1007" style="mask-type:luminance" maskUnits="userSpaceOnUse" x="43" y="87" width="29" height="30">
<path d="M43.9587 87.8174H71.7221V116.38H43.9587V87.8174Z" fill="white"/>
</mask>
<g mask="url(#mask12_97_1007)">
<mask id="mask13_97_1007" style="mask-type:luminance" maskUnits="userSpaceOnUse" x="41" y="85" width="34" height="34">
<path d="M50.1931 85.2443L74.2074 109.95L65.4748 118.934L41.4605 94.2281L50.1931 85.2443Z" fill="white"/>
</mask>
<g mask="url(#mask13_97_1007)">
<mask id="mask14_97_1007" style="mask-type:luminance" maskUnits="userSpaceOnUse" x="44" y="87" width="28" height="30">
<path d="M69.794 105.409C72.2055 107.89 72.2055 111.913 69.794 114.393C67.3825 116.874 63.473 116.874 61.0615 114.393L45.8264 98.7204C43.4156 96.2395 43.4156 92.2175 45.8264 89.7365C48.2379 87.2556 52.1482 87.2556 54.559 89.7365L69.794 105.409Z" fill="white"/>
</mask>
<g mask="url(#mask14_97_1007)">
<path d="M50.1931 85.2443L74.117 109.857L65.3837 118.84L41.4605 94.2281L50.1931 85.2443Z" fill="#DA291C"/>
</g>
</g>
</g>
<mask id="mask15_97_1007" style="mask-type:luminance" maskUnits="userSpaceOnUse" x="43" y="44" width="29" height="30">
<path d="M43.9587 44.974H71.7221V73.7347H43.9587V44.974Z" fill="white"/>
</mask>
<g mask="url(#mask15_97_1007)">
<mask id="mask16_97_1007" style="mask-type:luminance" maskUnits="userSpaceOnUse" x="41" y="42" width="34" height="35">
<path d="M50.1931 42.5294L74.2074 67.2348L65.4748 76.2186L41.4605 51.5133L50.1931 42.5294Z" fill="white"/>
</mask>
<g mask="url(#mask16_97_1007)">
<mask id="mask17_97_1007" style="mask-type:luminance" maskUnits="userSpaceOnUse" x="44" y="45" width="28" height="29">
<path d="M69.794 62.6944C72.2055 65.1754 72.2055 69.1974 69.794 71.6783C67.3825 74.1592 63.473 74.1592 61.0615 71.6783L45.8264 56.0048C43.4156 53.5239 43.4156 49.5019 45.8264 47.021C48.2379 44.54 52.1482 44.54 54.559 47.021L69.794 62.6944Z" fill="white"/>
</mask>
<g mask="url(#mask17_97_1007)">
<path d="M50.1931 42.5294L74.117 67.141L65.3837 76.1249L41.4605 51.5133L50.1931 42.5294Z" fill="#DA291C"/>
</g>
</g>
</g>
<mask id="mask18_97_1007" style="mask-type:luminance" maskUnits="userSpaceOnUse" x="43" y="132" width="29" height="30">
<path d="M43.9587 132.744H71.7221V161.952H43.9587V132.744Z" fill="white"/>
</mask>
<g mask="url(#mask18_97_1007)">
<mask id="mask19_97_1007" style="mask-type:luminance" maskUnits="userSpaceOnUse" x="41" y="130" width="34" height="35">
<path d="M50.1931 130.267L74.2074 155.356L65.4748 164.48L41.4605 139.39L50.1931 130.267Z" fill="white"/>
</mask>
<g mask="url(#mask19_97_1007)">
<mask id="mask20_97_1007" style="mask-type:luminance" maskUnits="userSpaceOnUse" x="44" y="132" width="28" height="30">
<path d="M69.794 150.745C72.2055 153.265 72.2055 157.349 69.794 159.869C67.3825 162.388 63.473 162.388 61.0615 159.869L45.8264 143.952C43.4156 141.432 43.4156 137.348 45.8264 134.828C48.2379 132.309 52.1482 132.309 54.559 134.828L69.794 150.745Z" fill="white"/>
</mask>
<g mask="url(#mask20_97_1007)">
<path d="M50.1931 130.267L74.117 155.261L65.3837 164.385L41.4605 139.39L50.1931 130.267Z" fill="#DA291C"/>
</g>
</g>
</g>
<mask id="mask21_97_1007" style="mask-type:luminance" maskUnits="userSpaceOnUse" x="83" y="2" width="29" height="29">
<path d="M83.6757 2.32886H111.439V30.8912H83.6757V2.32886Z" fill="white"/>
</mask>
<g mask="url(#mask21_97_1007)">
<mask id="mask22_97_1007" style="mask-type:luminance" maskUnits="userSpaceOnUse" x="81" y="-1" width="33" height="35">
<path d="M89.8574 -0.249634L113.872 24.4565L105.139 33.4403L81.1249 8.7342L89.8574 -0.249634Z" fill="white"/>
</mask>
<g mask="url(#mask22_97_1007)">
<mask id="mask23_97_1007" style="mask-type:luminance" maskUnits="userSpaceOnUse" x="83" y="2" width="29" height="29">
<path d="M109.458 19.9154C111.87 22.3963 111.87 26.419 109.458 28.8992C107.047 31.3801 103.137 31.3801 100.726 28.8992L85.4908 13.2265C83.0792 10.7456 83.0792 6.72356 85.4908 4.24265C87.9023 1.76173 91.8118 1.76173 94.2233 4.24265L109.458 19.9154Z" fill="white"/>
</mask>
<g mask="url(#mask23_97_1007)">
<path d="M89.8574 -0.249634L113.781 24.3627L105.048 33.3466L81.1249 8.7342L89.8574 -0.249634Z" fill="#DA291C"/>
</g>
</g>
</g>
<mask id="mask24_97_1007" style="mask-type:luminance" maskUnits="userSpaceOnUse" x="83" y="87" width="29" height="30">
<path d="M83.6757 87.8174H111.439V116.38H83.6757V87.8174Z" fill="white"/>
</mask>
<g mask="url(#mask24_97_1007)">
<mask id="mask25_97_1007" style="mask-type:luminance" maskUnits="userSpaceOnUse" x="81" y="85" width="33" height="34">
<path d="M89.8574 85.2443L113.872 109.95L105.139 118.934L81.1249 94.2281L89.8574 85.2443Z" fill="white"/>
</mask>
<g mask="url(#mask25_97_1007)">
<mask id="mask26_97_1007" style="mask-type:luminance" maskUnits="userSpaceOnUse" x="83" y="87" width="29" height="30">
<path d="M109.458 105.409C111.87 107.89 111.87 111.913 109.458 114.393C107.047 116.874 103.137 116.874 100.726 114.393L85.4908 98.7204C83.0792 96.2395 83.0792 92.2175 85.4908 89.7365C87.9023 87.2556 91.8118 87.2556 94.2233 89.7365L109.458 105.409Z" fill="white"/>
</mask>
<g mask="url(#mask26_97_1007)">
<path d="M89.8574 85.2443L113.781 109.857L105.048 118.84L81.1249 94.2281L89.8574 85.2443Z" fill="#DA291C"/>
</g>
</g>
</g>
<mask id="mask27_97_1007" style="mask-type:luminance" maskUnits="userSpaceOnUse" x="83" y="44" width="29" height="30">
<path d="M83.6757 44.974H111.439V73.7347H83.6757V44.974Z" fill="white"/>
</mask>
<g mask="url(#mask27_97_1007)">
<mask id="mask28_97_1007" style="mask-type:luminance" maskUnits="userSpaceOnUse" x="81" y="42" width="33" height="35">
<path d="M89.8574 42.5294L113.872 67.2348L105.139 76.2186L81.1249 51.5133L89.8574 42.5294Z" fill="white"/>
</mask>
<g mask="url(#mask28_97_1007)">
<mask id="mask29_97_1007" style="mask-type:luminance" maskUnits="userSpaceOnUse" x="83" y="45" width="29" height="29">
<path d="M109.458 62.6944C111.87 65.1754 111.87 69.1974 109.458 71.6783C107.047 74.1592 103.137 74.1592 100.726 71.6783L85.4908 56.0048C83.0792 53.5239 83.0792 49.5019 85.4908 47.021C87.9023 44.54 91.8118 44.54 94.2233 47.021L109.458 62.6944Z" fill="white"/>
</mask>
<g mask="url(#mask29_97_1007)">
<path d="M89.8574 42.5294L113.781 67.141L105.048 76.1249L81.1249 51.5133L89.8574 42.5294Z" fill="#DA291C"/>
</g>
</g>
</g>
<mask id="mask30_97_1007" style="mask-type:luminance" maskUnits="userSpaceOnUse" x="83" y="132" width="29" height="30">
<path d="M83.6757 132.744H111.439V161.952H83.6757V132.744Z" fill="white"/>
</mask>
<g mask="url(#mask30_97_1007)">
<mask id="mask31_97_1007" style="mask-type:luminance" maskUnits="userSpaceOnUse" x="81" y="130" width="33" height="35">
<path d="M89.8574 130.267L113.872 155.356L105.139 164.48L81.1249 139.39L89.8574 130.267Z" fill="white"/>
</mask>
<g mask="url(#mask31_97_1007)">
<mask id="mask32_97_1007" style="mask-type:luminance" maskUnits="userSpaceOnUse" x="83" y="132" width="29" height="30">
<path d="M109.458 150.745C111.87 153.265 111.87 157.349 109.458 159.869C107.047 162.388 103.137 162.388 100.726 159.869L85.4908 143.952C83.0792 141.432 83.0792 137.348 85.4908 134.828C87.9023 132.309 91.8118 132.309 94.2233 134.828L109.458 150.745Z" fill="white"/>
</mask>
<g mask="url(#mask32_97_1007)">
<path d="M89.8574 130.267L113.781 155.261L105.048 164.385L81.1249 139.39L89.8574 130.267Z" fill="#DA291C"/>
</g>
</g>
</g>
<mask id="mask33_97_1007" style="mask-type:luminance" maskUnits="userSpaceOnUse" x="2" y="2" width="29" height="30">
<path d="M2.69922 2.61865H30.4626V31.6249H2.69922V2.61865Z" fill="white"/>
</mask>
<g mask="url(#mask33_97_1007)">
<mask id="mask34_97_1007" style="mask-type:luminance" maskUnits="userSpaceOnUse" x="0" y="0" width="34" height="35">
<path d="M9.04887 0L33.0632 25.0902L24.3306 34.2136L0.315582 9.12348L9.04887 0Z" fill="white"/>
</mask>
<g mask="url(#mask34_97_1007)">
<mask id="mask35_97_1007" style="mask-type:luminance" maskUnits="userSpaceOnUse" x="2" y="2" width="29" height="30">
<path d="M28.6498 20.4785C31.0606 22.998 31.0606 27.0833 28.6498 29.602C26.2383 32.1215 22.328 32.1215 19.9173 29.602L4.68221 13.6857C2.27069 11.1662 2.27069 7.0817 4.68221 4.56222C7.09373 2.04274 11.0032 2.04274 13.4147 4.56222L28.6498 20.4785Z" fill="white"/>
</mask>
<g mask="url(#mask35_97_1007)">
<path d="M9.04888 0L32.972 24.995L24.2395 34.1184L0.315582 9.12348L9.04888 0Z" fill="#DA291C"/>
</g>
</g>
</g>
<mask id="mask36_97_1007" style="mask-type:luminance" maskUnits="userSpaceOnUse" x="2" y="89" width="29" height="30">
<path d="M2.69922 89.436H30.4626V118.442H2.69922V89.436Z" fill="white"/>
</mask>
<g mask="url(#mask36_97_1007)">
<mask id="mask37_97_1007" style="mask-type:luminance" maskUnits="userSpaceOnUse" x="0" y="86" width="34" height="36">
<path d="M9.04887 86.823L33.0632 111.913L24.3306 121.037L0.315582 95.9465L9.04887 86.823Z" fill="white"/>
</mask>
<g mask="url(#mask37_97_1007)">
<mask id="mask38_97_1007" style="mask-type:luminance" maskUnits="userSpaceOnUse" x="2" y="89" width="29" height="30">
<path d="M28.6498 107.302C31.0606 109.821 31.0606 113.906 28.6498 116.425C26.2383 118.944 22.328 118.944 19.9173 116.425L4.68221 100.509C2.27069 97.9892 2.27069 93.9047 4.68221 91.3852C7.09373 88.8657 11.0032 88.8657 13.4147 91.3852L28.6498 107.302Z" fill="white"/>
</mask>
<g mask="url(#mask38_97_1007)">
<path d="M9.04888 86.823L32.972 111.818L24.2395 120.941L0.315582 95.9465L9.04888 86.823Z" fill="#DA291C"/>
</g>
</g>
</g>
<mask id="mask39_97_1007" style="mask-type:luminance" maskUnits="userSpaceOnUse" x="2" y="45" width="29" height="31">
<path d="M2.69922 45.9266H30.4626V75.1344H2.69922V45.9266Z" fill="white"/>
</mask>
<g mask="url(#mask39_97_1007)">
<mask id="mask40_97_1007" style="mask-type:luminance" maskUnits="userSpaceOnUse" x="0" y="43" width="34" height="35">
<path d="M9.04887 43.4442L33.0632 68.5336L24.3306 77.6571L0.315582 52.5677L9.04887 43.4442Z" fill="white"/>
</mask>
<g mask="url(#mask40_97_1007)">
<mask id="mask41_97_1007" style="mask-type:luminance" maskUnits="userSpaceOnUse" x="2" y="46" width="29" height="29">
<path d="M28.6498 63.9227C31.0606 66.4422 31.0606 70.5267 28.6498 73.0462C26.2383 75.5657 22.328 75.5657 19.9173 73.0462L4.68221 57.1291C2.27069 54.6096 2.27069 50.5251 4.68221 48.0056C7.09373 45.4861 11.0032 45.4861 13.4147 48.0056L28.6498 63.9227Z" fill="white"/>
</mask>
<g mask="url(#mask41_97_1007)">
<path d="M9.04888 43.4442L32.972 68.4384L24.2395 77.5619L0.315582 52.5677L9.04888 43.4442Z" fill="#DA291C"/>
</g>
</g>
</g>
<mask id="mask42_97_1007" style="mask-type:luminance" maskUnits="userSpaceOnUse" x="2" y="132" width="29" height="30">
<path d="M2.69922 132.744H30.4626V161.952H2.69922V132.744Z" fill="white"/>
</mask>
<g mask="url(#mask42_97_1007)">
<mask id="mask43_97_1007" style="mask-type:luminance" maskUnits="userSpaceOnUse" x="0" y="130" width="34" height="35">
<path d="M9.04887 130.267L33.0632 155.356L24.3306 164.48L0.315582 139.39L9.04887 130.267Z" fill="white"/>
</mask>
<g mask="url(#mask43_97_1007)">
<mask id="mask44_97_1007" style="mask-type:luminance" maskUnits="userSpaceOnUse" x="2" y="132" width="29" height="30">
<path d="M28.6498 150.745C31.0606 153.265 31.0606 157.349 28.6498 159.869C26.2383 162.388 22.328 162.388 19.9173 159.869L4.68221 143.952C2.27069 141.432 2.27069 137.348 4.68221 134.828C7.09373 132.309 11.0032 132.309 13.4147 134.828L28.6498 150.745Z" fill="white"/>
</mask>
<g mask="url(#mask44_97_1007)">
<path d="M9.04888 130.267L32.972 155.261L24.2395 164.385L0.315582 139.39L9.04888 130.267Z" fill="#DA291C"/>
</g>
</g>
</g>
<mask id="mask45_97_1007" style="mask-type:luminance" maskUnits="userSpaceOnUse" x="124" y="2" width="29" height="29">
<path d="M124.742 2.32886H152.506V30.8912H124.742V2.32886Z" fill="white"/>
</mask>
<g mask="url(#mask45_97_1007)">
<mask id="mask46_97_1007" style="mask-type:luminance" maskUnits="userSpaceOnUse" x="122" y="-1" width="33" height="35">
<path d="M130.966 -0.249634L154.98 24.4565L146.247 33.4403L122.233 8.7342L130.966 -0.249634Z" fill="white"/>
</mask>
<g mask="url(#mask46_97_1007)">
<mask id="mask47_97_1007" style="mask-type:luminance" maskUnits="userSpaceOnUse" x="124" y="2" width="29" height="29">
<path d="M150.566 19.9154C152.977 22.3963 152.977 26.419 150.566 28.8992C148.155 31.3801 144.245 31.3801 141.834 28.8992L126.599 13.2265C124.187 10.7456 124.187 6.72356 126.599 4.24265C129.01 1.76173 132.92 1.76173 135.331 4.24265L150.566 19.9154Z" fill="white"/>
</mask>
<g mask="url(#mask47_97_1007)">
<path d="M130.966 -0.249634L154.889 24.3627L146.156 33.3466L122.233 8.7342L130.966 -0.249634Z" fill="#DA291C"/>
</g>
</g>
</g>
<mask id="mask48_97_1007" style="mask-type:luminance" maskUnits="userSpaceOnUse" x="122" y="-1" width="33" height="35">
<path d="M130.966 -0.249756L154.98 24.4564L146.247 33.4402L122.233 8.73408L130.966 -0.249756Z" fill="white"/>
</mask>
<g mask="url(#mask48_97_1007)">
<mask id="mask49_97_1007" style="mask-type:luminance" maskUnits="userSpaceOnUse" x="124" y="2" width="29" height="29">
<path d="M150.566 19.9152C152.977 22.3961 152.977 26.4189 150.566 28.8991C148.155 31.38 144.245 31.38 141.834 28.8991L126.599 13.2264C124.187 10.7454 124.187 6.72344 126.599 4.24252C129.01 1.76161 132.92 1.76161 135.331 4.24252L150.566 19.9152Z" fill="white"/>
</mask>
<g mask="url(#mask49_97_1007)">
<path d="M130.965 -0.249756L154.889 24.3626L146.156 33.3465L122.233 8.73408L130.965 -0.249756Z" fill="#DA291C"/>
</g>
</g>
<mask id="mask50_97_1007" style="mask-type:luminance" maskUnits="userSpaceOnUse" x="124" y="87" width="29" height="30">
<path d="M124.742 87.8174H152.506V116.38H124.742V87.8174Z" fill="white"/>
</mask>
<g mask="url(#mask50_97_1007)">
<mask id="mask51_97_1007" style="mask-type:luminance" maskUnits="userSpaceOnUse" x="122" y="85" width="33" height="34">
<path d="M130.966 85.2443L154.98 109.95L146.247 118.934L122.233 94.2281L130.966 85.2443Z" fill="white"/>
</mask>
<g mask="url(#mask51_97_1007)">
<mask id="mask52_97_1007" style="mask-type:luminance" maskUnits="userSpaceOnUse" x="124" y="87" width="29" height="30">
<path d="M150.566 105.409C152.977 107.89 152.977 111.913 150.566 114.393C148.155 116.874 144.245 116.874 141.834 114.393L126.599 98.7204C124.187 96.2395 124.187 92.2175 126.599 89.7365C129.01 87.2556 132.92 87.2556 135.331 89.7365L150.566 105.409Z" fill="white"/>
</mask>
<g mask="url(#mask52_97_1007)">
<path d="M130.966 85.2443L154.889 109.857L146.156 118.84L122.233 94.2281L130.966 85.2443Z" fill="#DA291C"/>
</g>
</g>
</g>
<mask id="mask53_97_1007" style="mask-type:luminance" maskUnits="userSpaceOnUse" x="124" y="44" width="29" height="30">
<path d="M124.742 44.974H152.506V73.7347H124.742V44.974Z" fill="white"/>
</mask>
<g mask="url(#mask53_97_1007)">
<mask id="mask54_97_1007" style="mask-type:luminance" maskUnits="userSpaceOnUse" x="122" y="42" width="33" height="35">
<path d="M130.966 42.5294L154.98 67.2348L146.247 76.2186L122.233 51.5133L130.966 42.5294Z" fill="white"/>
</mask>
<g mask="url(#mask54_97_1007)">
<mask id="mask55_97_1007" style="mask-type:luminance" maskUnits="userSpaceOnUse" x="124" y="45" width="29" height="29">
<path d="M150.566 62.6944C152.977 65.1754 152.977 69.1974 150.566 71.6783C148.155 74.1592 144.245 74.1592 141.834 71.6783L126.599 56.0048C124.187 53.5239 124.187 49.5019 126.599 47.021C129.01 44.54 132.92 44.54 135.331 47.021L150.566 62.6944Z" fill="white"/>
</mask>
<g mask="url(#mask55_97_1007)">
<path d="M130.966 42.5294L154.889 67.141L146.156 76.1249L122.233 51.5133L130.966 42.5294Z" fill="#DA291C"/>
</g>
</g>
</g>
<mask id="mask56_97_1007" style="mask-type:luminance" maskUnits="userSpaceOnUse" x="124" y="132" width="29" height="30">
<path d="M124.742 132.744H152.506V161.952H124.742V132.744Z" fill="white"/>
</mask>
<g mask="url(#mask56_97_1007)">
<mask id="mask57_97_1007" style="mask-type:luminance" maskUnits="userSpaceOnUse" x="122" y="130" width="33" height="35">
<path d="M130.966 130.267L154.98 155.356L146.247 164.48L122.233 139.39L130.966 130.267Z" fill="white"/>
</mask>
<g mask="url(#mask57_97_1007)">
<mask id="mask58_97_1007" style="mask-type:luminance" maskUnits="userSpaceOnUse" x="124" y="132" width="29" height="30">
<path d="M150.566 150.745C152.977 153.265 152.977 157.349 150.566 159.869C148.155 162.388 144.245 162.388 141.834 159.869L126.599 143.952C124.187 141.432 124.187 137.348 126.599 134.828C129.01 132.309 132.92 132.309 135.331 134.828L150.566 150.745Z" fill="white"/>
</mask>
<g mask="url(#mask58_97_1007)">
<path d="M130.966 130.267L154.889 155.261L146.156 164.385L122.233 139.39L130.966 130.267Z" fill="#DA291C"/>
</g>
</g>
</g>
<mask id="mask59_97_1007" style="mask-type:luminance" maskUnits="userSpaceOnUse" x="23" y="24" width="29" height="29">
<path d="M23.7145 24.3456H51.4779V52.9079H23.7145V24.3456Z" fill="white"/>
</mask>
<g mask="url(#mask59_97_1007)">
<mask id="mask60_97_1007" style="mask-type:luminance" maskUnits="userSpaceOnUse" x="21" y="21" width="34" height="35">
<path d="M21.3309 46.4895L45.3452 21.7833L54.0777 30.7672L30.0634 55.4733L21.3309 46.4895Z" fill="white"/>
</mask>
<g mask="url(#mask60_97_1007)">
<mask id="mask61_97_1007" style="mask-type:luminance" maskUnits="userSpaceOnUse" x="23" y="24" width="29" height="29">
<path d="M40.9319 26.3244C43.3434 23.8435 47.2529 23.8435 49.6644 26.3244C52.0759 28.8054 52.0759 32.8274 49.6644 35.3083L34.4293 50.981C32.0178 53.4619 28.1083 53.4619 25.6968 50.981C23.2853 48.5001 23.2853 44.4781 25.6968 41.9971L40.9319 26.3244Z" fill="white"/>
</mask>
<g mask="url(#mask61_97_1007)">
<path d="M21.3309 46.4895L45.2541 21.8771L53.9866 30.8609L30.0634 55.4733L21.3309 46.4895Z" fill="#FF9E1B"/>
</g>
</g>
</g>
<mask id="mask62_97_1007" style="mask-type:luminance" maskUnits="userSpaceOnUse" x="23" y="109" width="29" height="30">
<path d="M23.7145 109.834H51.4779V138.397H23.7145V109.834Z" fill="white"/>
</mask>
<g mask="url(#mask62_97_1007)">
<mask id="mask63_97_1007" style="mask-type:luminance" maskUnits="userSpaceOnUse" x="21" y="107" width="34" height="34">
<path d="M21.3309 131.983L45.3452 107.277L54.0777 116.261L30.0634 140.967L21.3309 131.983Z" fill="white"/>
</mask>
<g mask="url(#mask63_97_1007)">
<mask id="mask64_97_1007" style="mask-type:luminance" maskUnits="userSpaceOnUse" x="23" y="109" width="29" height="30">
<path d="M40.9319 111.818C43.3434 109.338 47.2529 109.338 49.6644 111.818C52.0759 114.299 52.0759 118.321 49.6644 120.802L34.4293 136.475C32.0178 138.956 28.1083 138.956 25.6968 136.475C23.2853 133.994 23.2853 129.972 25.6968 127.491L40.9319 111.818Z" fill="white"/>
</mask>
<g mask="url(#mask64_97_1007)">
<path d="M21.3309 131.983L45.2541 107.371L53.9866 116.355L30.0634 140.967L21.3309 131.983Z" fill="#FF9E1B"/>
</g>
</g>
</g>
<mask id="mask65_97_1007" style="mask-type:luminance" maskUnits="userSpaceOnUse" x="23" y="67" width="29" height="29">
<path d="M23.7145 67.1891H51.4779V95.7514H23.7145V67.1891Z" fill="white"/>
</mask>
<g mask="url(#mask65_97_1007)">
<mask id="mask66_97_1007" style="mask-type:luminance" maskUnits="userSpaceOnUse" x="21" y="64" width="34" height="35">
<path d="M21.3309 89.2679L45.3452 64.5625L54.0777 73.5463L30.0634 98.2517L21.3309 89.2679Z" fill="white"/>
</mask>
<g mask="url(#mask66_97_1007)">
<mask id="mask67_97_1007" style="mask-type:luminance" maskUnits="userSpaceOnUse" x="23" y="67" width="29" height="29">
<path d="M40.9319 69.1029C43.3434 66.622 47.2529 66.622 49.6644 69.1029C52.0759 71.5838 52.0759 75.6058 49.6644 78.0867L34.4293 93.7602C32.0178 96.2411 28.1083 96.2411 25.6968 93.7602C23.2853 91.2793 23.2853 87.2573 25.6968 84.7764L40.9319 69.1029Z" fill="white"/>
</mask>
<g mask="url(#mask67_97_1007)">
<path d="M21.3309 89.2679L45.2541 64.6562L53.9866 73.6401L30.0634 98.2517L21.3309 89.2679Z" fill="#FF9E1B"/>
</g>
</g>
</g>
<mask id="mask68_97_1007" style="mask-type:luminance" maskUnits="userSpaceOnUse" x="104" y="24" width="29" height="29">
<path d="M104.691 24.3456H132.454V52.9079H104.691V24.3456Z" fill="white"/>
</mask>
<g mask="url(#mask68_97_1007)">
<mask id="mask69_97_1007" style="mask-type:luminance" maskUnits="userSpaceOnUse" x="102" y="21" width="33" height="35">
<path d="M102.139 46.4895L126.154 21.7833L134.886 30.7672L110.872 55.4733L102.139 46.4895Z" fill="white"/>
</mask>
<g mask="url(#mask69_97_1007)">
<mask id="mask70_97_1007" style="mask-type:luminance" maskUnits="userSpaceOnUse" x="104" y="24" width="29" height="29">
<path d="M121.74 26.3244C124.152 23.8435 128.061 23.8435 130.473 26.3244C132.884 28.8054 132.884 32.8274 130.473 35.3083L115.239 50.981C112.827 53.4619 108.917 53.4619 106.506 50.981C104.095 48.5001 104.095 44.4781 106.506 41.9971L121.74 26.3244Z" fill="white"/>
</mask>
<g mask="url(#mask70_97_1007)">
<path d="M102.139 46.4895L126.063 21.8771L134.796 30.8609L110.872 55.4733L102.139 46.4895Z" fill="#FF9E1B"/>
</g>
</g>
</g>
<mask id="mask71_97_1007" style="mask-type:luminance" maskUnits="userSpaceOnUse" x="104" y="109" width="29" height="30">
<path d="M104.691 109.834H132.454V138.397H104.691V109.834Z" fill="white"/>
</mask>
<g mask="url(#mask71_97_1007)">
<mask id="mask72_97_1007" style="mask-type:luminance" maskUnits="userSpaceOnUse" x="102" y="107" width="33" height="34">
<path d="M102.139 131.983L126.154 107.277L134.886 116.261L110.872 140.967L102.139 131.983Z" fill="white"/>
</mask>
<g mask="url(#mask72_97_1007)">
<mask id="mask73_97_1007" style="mask-type:luminance" maskUnits="userSpaceOnUse" x="104" y="109" width="29" height="30">
<path d="M121.74 111.818C124.152 109.338 128.061 109.338 130.473 111.818C132.884 114.299 132.884 118.321 130.473 120.802L115.239 136.475C112.827 138.956 108.917 138.956 106.506 136.475C104.095 133.994 104.095 129.972 106.506 127.491L121.74 111.818Z" fill="white"/>
</mask>
<g mask="url(#mask73_97_1007)">
<path d="M102.139 131.983L126.063 107.371L134.796 116.355L110.872 140.967L102.139 131.983Z" fill="#FF9E1B"/>
</g>
</g>
</g>
<mask id="mask74_97_1007" style="mask-type:luminance" maskUnits="userSpaceOnUse" x="104" y="67" width="29" height="29">
<path d="M104.691 67.1891H132.454V95.7514H104.691V67.1891Z" fill="white"/>
</mask>
<g mask="url(#mask74_97_1007)">
<mask id="mask75_97_1007" style="mask-type:luminance" maskUnits="userSpaceOnUse" x="102" y="64" width="33" height="35">
<path d="M102.139 89.2679L126.154 64.5625L134.886 73.5463L110.872 98.2517L102.139 89.2679Z" fill="white"/>
</mask>
<g mask="url(#mask75_97_1007)">
<mask id="mask76_97_1007" style="mask-type:luminance" maskUnits="userSpaceOnUse" x="104" y="67" width="29" height="29">
<path d="M121.74 69.1029C124.152 66.622 128.061 66.622 130.473 69.1029C132.884 71.5838 132.884 75.6058 130.473 78.0867L115.239 93.7602C112.827 96.2411 108.917 96.2411 106.506 93.7602C104.095 91.2793 104.095 87.2573 106.506 84.7764L121.74 69.1029Z" fill="white"/>
</mask>
<g mask="url(#mask76_97_1007)">
<path d="M102.139 89.2679L126.063 64.6562L134.796 73.6401L110.872 98.2517L102.139 89.2679Z" fill="#FF9E1B"/>
</g>
</g>
</g>
</g>
<g clip-path="url(#clip1_97_1007)">
<mask id="mask77_97_1007" style="mask-type:luminance" maskUnits="userSpaceOnUse" x="64" y="153" width="28" height="30">
<path d="M64.2028 153.596H91.9662V182.158H64.2028V153.596Z" fill="white"/>
</mask>
<g mask="url(#mask77_97_1007)">
<mask id="mask78_97_1007" style="mask-type:luminance" maskUnits="userSpaceOnUse" x="61" y="151" width="34" height="34">
<path d="M61.7348 175.74L85.7499 151.034L94.4824 160.018L70.4674 184.724L61.7348 175.74Z" fill="white"/>
</mask>
<g mask="url(#mask78_97_1007)">
<mask id="mask79_97_1007" style="mask-type:luminance" maskUnits="userSpaceOnUse" x="64" y="153" width="28" height="30">
<path d="M81.3358 155.575C83.7473 153.094 87.6575 153.094 90.0683 155.575C92.4798 158.056 92.4798 162.078 90.0683 164.559L74.834 180.231C72.4225 182.712 68.513 182.712 66.1015 180.231C63.6899 177.751 63.6899 173.729 66.1015 171.248L81.3358 155.575Z" fill="white"/>
</mask>
<g mask="url(#mask79_97_1007)">
<path d="M61.7348 175.74L85.6588 151.128L94.3913 160.111L70.4674 184.724L61.7348 175.74Z" fill="#FF9E1B"/>
</g>
</g>
</g>
<mask id="mask80_97_1007" style="mask-type:luminance" maskUnits="userSpaceOnUse" x="64" y="239" width="28" height="29">
<path d="M64.2028 239.085H91.9662V267.647H64.2028V239.085Z" fill="white"/>
</mask>
<g mask="url(#mask80_97_1007)">
<mask id="mask81_97_1007" style="mask-type:luminance" maskUnits="userSpaceOnUse" x="61" y="236" width="34" height="35">
<path d="M61.7348 261.234L85.7499 236.528L94.4824 245.512L70.4674 270.218L61.7348 261.234Z" fill="white"/>
</mask>
<g mask="url(#mask81_97_1007)">
<mask id="mask82_97_1007" style="mask-type:luminance" maskUnits="userSpaceOnUse" x="64" y="239" width="28" height="29">
<path d="M81.3358 241.069C83.7473 238.588 87.6575 238.588 90.0683 241.069C92.4798 243.55 92.4798 247.572 90.0683 250.053L74.834 265.726C72.4225 268.206 68.513 268.206 66.1015 265.726C63.6899 263.245 63.6899 259.223 66.1015 256.742L81.3358 241.069Z" fill="white"/>
</mask>
<g mask="url(#mask82_97_1007)">
<path d="M61.7348 261.234L85.6588 236.622L94.3913 245.605L70.4674 270.218L61.7348 261.234Z" fill="#FF9E1B"/>
</g>
</g>
</g>
<mask id="mask83_97_1007" style="mask-type:luminance" maskUnits="userSpaceOnUse" x="64" y="196" width="28" height="30">
<path d="M64.2028 196.44H91.9662V225.002H64.2028V196.44Z" fill="white"/>
</mask>
<g mask="url(#mask83_97_1007)">
<mask id="mask84_97_1007" style="mask-type:luminance" maskUnits="userSpaceOnUse" x="61" y="193" width="34" height="35">
<path d="M61.7348 218.518L85.7499 193.813L94.4824 202.797L70.4674 227.502L61.7348 218.518Z" fill="white"/>
</mask>
<g mask="url(#mask84_97_1007)">
<mask id="mask85_97_1007" style="mask-type:luminance" maskUnits="userSpaceOnUse" x="64" y="196" width="28" height="29">
<path d="M81.3358 198.353C83.7473 195.872 87.6575 195.872 90.0683 198.353C92.4798 200.834 92.4798 204.856 90.0683 207.337L74.834 223.011C72.4225 225.492 68.513 225.492 66.1015 223.011C63.6899 220.53 63.6899 216.508 66.1015 214.027L81.3358 198.353Z" fill="white"/>
</mask>
<g mask="url(#mask85_97_1007)">
<path d="M61.7348 218.518L85.6588 193.907L94.3913 202.891L70.4674 227.502L61.7348 218.518Z" fill="#FF9E1B"/>
</g>
</g>
</g>
<mask id="mask86_97_1007" style="mask-type:luminance" maskUnits="userSpaceOnUse" x="43" y="131" width="29" height="30">
<path d="M43.9587 131.579H71.7221V160.142H43.9587V131.579Z" fill="white"/>
</mask>
<g mask="url(#mask86_97_1007)">
<mask id="mask87_97_1007" style="mask-type:luminance" maskUnits="userSpaceOnUse" x="41" y="129" width="34" height="34">
<path d="M50.1931 129.001L74.2074 153.707L65.4748 162.691L41.4605 137.985L50.1931 129.001Z" fill="white"/>
</mask>
<g mask="url(#mask87_97_1007)">
<mask id="mask88_97_1007" style="mask-type:luminance" maskUnits="userSpaceOnUse" x="44" y="131" width="28" height="30">
<path d="M69.794 149.166C72.2055 151.647 72.2055 155.67 69.794 158.15C67.3825 160.631 63.473 160.631 61.0615 158.15L45.8264 142.477C43.4156 139.996 43.4156 135.974 45.8264 133.493C48.2379 131.012 52.1482 131.012 54.559 133.493L69.794 149.166Z" fill="white"/>
</mask>
<g mask="url(#mask88_97_1007)">
<path d="M50.1931 129.001L74.117 153.613L65.3837 162.597L41.4605 137.985L50.1931 129.001Z" fill="#DA291C"/>
</g>
</g>
</g>
<mask id="mask89_97_1007" style="mask-type:luminance" maskUnits="userSpaceOnUse" x="43" y="217" width="29" height="29">
<path d="M43.9587 217.068H71.7221V245.63H43.9587V217.068Z" fill="white"/>
</mask>
<g mask="url(#mask89_97_1007)">
<mask id="mask90_97_1007" style="mask-type:luminance" maskUnits="userSpaceOnUse" x="41" y="214" width="34" height="35">
<path d="M50.1931 214.495L74.2074 239.201L65.4748 248.185L41.4605 223.479L50.1931 214.495Z" fill="white"/>
</mask>
<g mask="url(#mask90_97_1007)">
<mask id="mask91_97_1007" style="mask-type:luminance" maskUnits="userSpaceOnUse" x="44" y="217" width="28" height="29">
<path d="M69.794 234.66C72.2055 237.141 72.2055 241.163 69.794 243.644C67.3825 246.124 63.473 246.124 61.0615 243.644L45.8264 227.971C43.4156 225.49 43.4156 221.468 45.8264 218.987C48.2379 216.506 52.1482 216.506 54.559 218.987L69.794 234.66Z" fill="white"/>
</mask>
<g mask="url(#mask91_97_1007)">
<path d="M50.1931 214.495L74.117 239.107L65.3837 248.091L41.4605 223.479L50.1931 214.495Z" fill="#DA291C"/>
</g>
</g>
</g>
<mask id="mask92_97_1007" style="mask-type:luminance" maskUnits="userSpaceOnUse" x="43" y="174" width="29" height="29">
<path d="M43.9587 174.224H71.7221V202.985H43.9587V174.224Z" fill="white"/>
</mask>
<g mask="url(#mask92_97_1007)">
<mask id="mask93_97_1007" style="mask-type:luminance" maskUnits="userSpaceOnUse" x="41" y="171" width="34" height="35">
<path d="M50.1931 171.78L74.2074 196.485L65.4748 205.469L41.4605 180.764L50.1931 171.78Z" fill="white"/>
</mask>
<g mask="url(#mask93_97_1007)">
<mask id="mask94_97_1007" style="mask-type:luminance" maskUnits="userSpaceOnUse" x="44" y="174" width="28" height="29">
<path d="M69.794 191.945C72.2055 194.426 72.2055 198.448 69.794 200.929C67.3825 203.41 63.473 203.41 61.0615 200.929L45.8264 185.255C43.4156 182.774 43.4156 178.752 45.8264 176.271C48.2379 173.791 52.1482 173.791 54.559 176.271L69.794 191.945Z" fill="white"/>
</mask>
<g mask="url(#mask94_97_1007)">
<path d="M50.1931 171.78L74.117 196.392L65.3837 205.375L41.4605 180.764L50.1931 171.78Z" fill="#DA291C"/>
</g>
</g>
</g>
<mask id="mask95_97_1007" style="mask-type:luminance" maskUnits="userSpaceOnUse" x="43" y="261" width="29" height="31">
<path d="M43.9587 261.995H71.7221V291.202H43.9587V261.995Z" fill="white"/>
</mask>
<g mask="url(#mask95_97_1007)">
<mask id="mask96_97_1007" style="mask-type:luminance" maskUnits="userSpaceOnUse" x="41" y="259" width="34" height="35">
<path d="M50.1931 259.518L74.2074 284.607L65.4748 293.73L41.4605 268.641L50.1931 259.518Z" fill="white"/>
</mask>
<g mask="url(#mask96_97_1007)">
<mask id="mask97_97_1007" style="mask-type:luminance" maskUnits="userSpaceOnUse" x="44" y="262" width="28" height="30">
<path d="M69.794 279.996C72.2055 282.515 72.2055 286.6 69.794 289.119C67.3825 291.639 63.473 291.639 61.0615 289.119L45.8264 273.202C43.4156 270.683 43.4156 266.598 45.8264 264.079C48.2379 261.559 52.1482 261.559 54.559 264.079L69.794 279.996Z" fill="white"/>
</mask>
<g mask="url(#mask97_97_1007)">
<path d="M50.1931 259.518L74.117 284.512L65.3837 293.635L41.4605 268.641L50.1931 259.518Z" fill="#DA291C"/>
</g>
</g>
</g>
<mask id="mask98_97_1007" style="mask-type:luminance" maskUnits="userSpaceOnUse" x="83" y="131" width="29" height="30">
<path d="M83.6757 131.579H111.439V160.142H83.6757V131.579Z" fill="white"/>
</mask>
<g mask="url(#mask98_97_1007)">
<mask id="mask99_97_1007" style="mask-type:luminance" maskUnits="userSpaceOnUse" x="81" y="129" width="33" height="34">
<path d="M89.8574 129.001L113.872 153.707L105.139 162.691L81.1249 137.985L89.8574 129.001Z" fill="white"/>
</mask>
<g mask="url(#mask99_97_1007)">
<mask id="mask100_97_1007" style="mask-type:luminance" maskUnits="userSpaceOnUse" x="83" y="131" width="29" height="30">
<path d="M109.458 149.166C111.87 151.647 111.87 155.67 109.458 158.15C107.047 160.631 103.137 160.631 100.726 158.15L85.4908 142.477C83.0792 139.996 83.0792 135.974 85.4908 133.493C87.9023 131.012 91.8118 131.012 94.2233 133.493L109.458 149.166Z" fill="white"/>
</mask>
<g mask="url(#mask100_97_1007)">
<path d="M89.8574 129.001L113.781 153.613L105.048 162.597L81.1249 137.985L89.8574 129.001Z" fill="#DA291C"/>
</g>
</g>
</g>
<mask id="mask101_97_1007" style="mask-type:luminance" maskUnits="userSpaceOnUse" x="83" y="217" width="29" height="29">
<path d="M83.6757 217.068H111.439V245.63H83.6757V217.068Z" fill="white"/>
</mask>
<g mask="url(#mask101_97_1007)">
<mask id="mask102_97_1007" style="mask-type:luminance" maskUnits="userSpaceOnUse" x="81" y="214" width="33" height="35">
<path d="M89.8574 214.495L113.872 239.201L105.139 248.185L81.1249 223.479L89.8574 214.495Z" fill="white"/>
</mask>
<g mask="url(#mask102_97_1007)">
<mask id="mask103_97_1007" style="mask-type:luminance" maskUnits="userSpaceOnUse" x="83" y="217" width="29" height="29">
<path d="M109.458 234.66C111.87 237.141 111.87 241.163 109.458 243.644C107.047 246.124 103.137 246.124 100.726 243.644L85.4908 227.971C83.0792 225.49 83.0792 221.468 85.4908 218.987C87.9023 216.506 91.8118 216.506 94.2233 218.987L109.458 234.66Z" fill="white"/>
</mask>
<g mask="url(#mask103_97_1007)">
<path d="M89.8574 214.495L113.781 239.107L105.048 248.091L81.1249 223.479L89.8574 214.495Z" fill="#DA291C"/>
</g>
</g>
</g>
<mask id="mask104_97_1007" style="mask-type:luminance" maskUnits="userSpaceOnUse" x="83" y="174" width="29" height="29">
<path d="M83.6757 174.224H111.439V202.985H83.6757V174.224Z" fill="white"/>
</mask>
<g mask="url(#mask104_97_1007)">
<mask id="mask105_97_1007" style="mask-type:luminance" maskUnits="userSpaceOnUse" x="81" y="171" width="33" height="35">
<path d="M89.8574 171.78L113.872 196.485L105.139 205.469L81.1249 180.764L89.8574 171.78Z" fill="white"/>
</mask>
<g mask="url(#mask105_97_1007)">
<mask id="mask106_97_1007" style="mask-type:luminance" maskUnits="userSpaceOnUse" x="83" y="174" width="29" height="29">
<path d="M109.458 191.945C111.87 194.426 111.87 198.448 109.458 200.929C107.047 203.41 103.137 203.41 100.726 200.929L85.4908 185.255C83.0792 182.774 83.0792 178.752 85.4908 176.271C87.9023 173.791 91.8118 173.791 94.2233 176.271L109.458 191.945Z" fill="white"/>
</mask>
<g mask="url(#mask106_97_1007)">
<path d="M89.8574 171.78L113.781 196.392L105.048 205.375L81.1249 180.764L89.8574 171.78Z" fill="#DA291C"/>
</g>
</g>
</g>
<mask id="mask107_97_1007" style="mask-type:luminance" maskUnits="userSpaceOnUse" x="83" y="261" width="29" height="31">
<path d="M83.6757 261.995H111.439V291.202H83.6757V261.995Z" fill="white"/>
</mask>
<g mask="url(#mask107_97_1007)">
<mask id="mask108_97_1007" style="mask-type:luminance" maskUnits="userSpaceOnUse" x="81" y="259" width="33" height="35">
<path d="M89.8574 259.518L113.872 284.607L105.139 293.73L81.1249 268.641L89.8574 259.518Z" fill="white"/>
</mask>
<g mask="url(#mask108_97_1007)">
<mask id="mask109_97_1007" style="mask-type:luminance" maskUnits="userSpaceOnUse" x="83" y="262" width="29" height="30">
<path d="M109.458 279.996C111.87 282.515 111.87 286.6 109.458 289.119C107.047 291.639 103.137 291.639 100.726 289.119L85.4908 273.202C83.0792 270.683 83.0792 266.598 85.4908 264.079C87.9023 261.559 91.8118 261.559 94.2233 264.079L109.458 279.996Z" fill="white"/>
</mask>
<g mask="url(#mask109_97_1007)">
<path d="M89.8574 259.518L113.781 284.512L105.048 293.635L81.1249 268.641L89.8574 259.518Z" fill="#DA291C"/>
</g>
</g>
</g>
<mask id="mask110_97_1007" style="mask-type:luminance" maskUnits="userSpaceOnUse" x="2" y="131" width="29" height="30">
<path d="M2.69922 131.869H30.4626V160.875H2.69922V131.869Z" fill="white"/>
</mask>
<g mask="url(#mask110_97_1007)">
<mask id="mask111_97_1007" style="mask-type:luminance" maskUnits="userSpaceOnUse" x="0" y="129" width="34" height="35">
<path d="M9.04887 129.25L33.0632 154.341L24.3306 163.464L0.315582 138.374L9.04887 129.25Z" fill="white"/>
</mask>
<g mask="url(#mask111_97_1007)">
<mask id="mask112_97_1007" style="mask-type:luminance" maskUnits="userSpaceOnUse" x="2" y="131" width="29" height="30">
<path d="M28.6498 149.729C31.0606 152.249 31.0606 156.334 28.6498 158.853C26.2383 161.372 22.328 161.372 19.9173 158.853L4.68221 142.936C2.27069 140.417 2.27069 136.332 4.68221 133.813C7.09373 131.293 11.0032 131.293 13.4147 133.813L28.6498 149.729Z" fill="white"/>
</mask>
<g mask="url(#mask112_97_1007)">
<path d="M9.04888 129.25L32.972 154.245L24.2395 163.369L0.315582 138.374L9.04888 129.25Z" fill="#DA291C"/>
</g>
</g>
</g>
<mask id="mask113_97_1007" style="mask-type:luminance" maskUnits="userSpaceOnUse" x="2" y="218" width="29" height="30">
<path d="M2.69922 218.687H30.4626V247.693H2.69922V218.687Z" fill="white"/>
</mask>
<g mask="url(#mask113_97_1007)">
<mask id="mask114_97_1007" style="mask-type:luminance" maskUnits="userSpaceOnUse" x="0" y="216" width="34" height="35">
<path d="M9.04887 216.073L33.0632 241.164L24.3306 250.287L0.315582 225.197L9.04887 216.073Z" fill="white"/>
</mask>
<g mask="url(#mask114_97_1007)">
<mask id="mask115_97_1007" style="mask-type:luminance" maskUnits="userSpaceOnUse" x="2" y="218" width="29" height="30">
<path d="M28.6498 236.552C31.0606 239.072 31.0606 243.157 28.6498 245.676C26.2383 248.195 22.328 248.195 19.9173 245.676L4.68221 229.759C2.27069 227.24 2.27069 223.155 4.68221 220.636C7.09373 218.116 11.0032 218.116 13.4147 220.636L28.6498 236.552Z" fill="white"/>
</mask>
<g mask="url(#mask115_97_1007)">
<path d="M9.04888 216.073L32.972 241.068L24.2395 250.192L0.315582 225.197L9.04888 216.073Z" fill="#DA291C"/>
</g>
</g>
</g>
<mask id="mask116_97_1007" style="mask-type:luminance" maskUnits="userSpaceOnUse" x="2" y="175" width="29" height="30">
<path d="M2.69922 175.177H30.4626V204.385H2.69922V175.177Z" fill="white"/>
</mask>
<g mask="url(#mask116_97_1007)">
<mask id="mask117_97_1007" style="mask-type:luminance" maskUnits="userSpaceOnUse" x="0" y="172" width="34" height="35">
<path d="M9.04887 172.695L33.0632 197.784L24.3306 206.908L0.315582 181.818L9.04887 172.695Z" fill="white"/>
</mask>
<g mask="url(#mask117_97_1007)">
<mask id="mask118_97_1007" style="mask-type:luminance" maskUnits="userSpaceOnUse" x="2" y="175" width="29" height="30">
<path d="M28.6498 193.173C31.0606 195.693 31.0606 199.777 28.6498 202.297C26.2383 204.816 22.328 204.816 19.9173 202.297L4.68221 186.38C2.27069 183.86 2.27069 179.776 4.68221 177.256C7.09373 174.737 11.0032 174.737 13.4147 177.256L28.6498 193.173Z" fill="white"/>
</mask>
<g mask="url(#mask118_97_1007)">
<path d="M9.04888 172.695L32.972 197.689L24.2395 206.812L0.315582 181.818L9.04888 172.695Z" fill="#DA291C"/>
</g>
</g>
</g>
<mask id="mask119_97_1007" style="mask-type:luminance" maskUnits="userSpaceOnUse" x="2" y="261" width="29" height="31">
<path d="M2.69922 261.995H30.4626V291.202H2.69922V261.995Z" fill="white"/>
</mask>
<g mask="url(#mask119_97_1007)">
<mask id="mask120_97_1007" style="mask-type:luminance" maskUnits="userSpaceOnUse" x="0" y="259" width="34" height="35">
<path d="M9.04887 259.518L33.0632 284.607L24.3306 293.73L0.315582 268.641L9.04887 259.518Z" fill="white"/>
</mask>
<g mask="url(#mask120_97_1007)">
<mask id="mask121_97_1007" style="mask-type:luminance" maskUnits="userSpaceOnUse" x="2" y="262" width="29" height="30">
<path d="M28.6498 279.996C31.0606 282.515 31.0606 286.6 28.6498 289.119C26.2383 291.639 22.328 291.639 19.9173 289.119L4.68221 273.202C2.27069 270.683 2.27069 266.598 4.68221 264.079C7.09373 261.559 11.0032 261.559 13.4147 264.079L28.6498 279.996Z" fill="white"/>
</mask>
<g mask="url(#mask121_97_1007)">
<path d="M9.04888 259.518L32.972 284.512L24.2395 293.635L0.315582 268.641L9.04888 259.518Z" fill="#DA291C"/>
</g>
</g>
</g>
<mask id="mask122_97_1007" style="mask-type:luminance" maskUnits="userSpaceOnUse" x="124" y="131" width="29" height="30">
<path d="M124.742 131.579H152.506V160.142H124.742V131.579Z" fill="white"/>
</mask>
<g mask="url(#mask122_97_1007)">
<mask id="mask123_97_1007" style="mask-type:luminance" maskUnits="userSpaceOnUse" x="122" y="129" width="33" height="34">
<path d="M130.966 129.001L154.98 153.707L146.247 162.691L122.233 137.985L130.966 129.001Z" fill="white"/>
</mask>
<g mask="url(#mask123_97_1007)">
<mask id="mask124_97_1007" style="mask-type:luminance" maskUnits="userSpaceOnUse" x="124" y="131" width="29" height="30">
<path d="M150.566 149.166C152.977 151.647 152.977 155.67 150.566 158.15C148.155 160.631 144.245 160.631 141.834 158.15L126.599 142.477C124.187 139.996 124.187 135.974 126.599 133.493C129.01 131.012 132.92 131.012 135.331 133.493L150.566 149.166Z" fill="white"/>
</mask>
<g mask="url(#mask124_97_1007)">
<path d="M130.966 129.001L154.889 153.613L146.156 162.597L122.233 137.985L130.966 129.001Z" fill="#DA291C"/>
</g>
</g>
</g>
<mask id="mask125_97_1007" style="mask-type:luminance" maskUnits="userSpaceOnUse" x="122" y="129" width="33" height="34">
<path d="M130.966 129.001L154.98 153.707L146.247 162.691L122.233 137.985L130.966 129.001Z" fill="white"/>
</mask>
<g mask="url(#mask125_97_1007)">
<mask id="mask126_97_1007" style="mask-type:luminance" maskUnits="userSpaceOnUse" x="124" y="131" width="29" height="30">
<path d="M150.566 149.166C152.977 151.647 152.977 155.669 150.566 158.15C148.155 160.63 144.245 160.63 141.834 158.15L126.599 142.477C124.187 139.996 124.187 135.974 126.599 133.493C129.01 131.012 132.92 131.012 135.331 133.493L150.566 149.166Z" fill="white"/>
</mask>
<g mask="url(#mask126_97_1007)">
<path d="M130.965 129.001L154.889 153.613L146.156 162.597L122.233 137.985L130.965 129.001Z" fill="#DA291C"/>
</g>
</g>
<mask id="mask127_97_1007" style="mask-type:luminance" maskUnits="userSpaceOnUse" x="124" y="217" width="29" height="29">
<path d="M124.742 217.068H152.506V245.63H124.742V217.068Z" fill="white"/>
</mask>
<g mask="url(#mask127_97_1007)">
<mask id="mask128_97_1007" style="mask-type:luminance" maskUnits="userSpaceOnUse" x="122" y="214" width="33" height="35">
<path d="M130.966 214.495L154.98 239.201L146.247 248.185L122.233 223.479L130.966 214.495Z" fill="white"/>
</mask>
<g mask="url(#mask128_97_1007)">
<mask id="mask129_97_1007" style="mask-type:luminance" maskUnits="userSpaceOnUse" x="124" y="217" width="29" height="29">
<path d="M150.566 234.66C152.977 237.141 152.977 241.163 150.566 243.644C148.155 246.124 144.245 246.124 141.834 243.644L126.599 227.971C124.187 225.49 124.187 221.468 126.599 218.987C129.01 216.506 132.92 216.506 135.331 218.987L150.566 234.66Z" fill="white"/>
</mask>
<g mask="url(#mask129_97_1007)">
<path d="M130.966 214.495L154.889 239.107L146.156 248.091L122.233 223.479L130.966 214.495Z" fill="#DA291C"/>
</g>
</g>
</g>
<mask id="mask130_97_1007" style="mask-type:luminance" maskUnits="userSpaceOnUse" x="124" y="174" width="29" height="29">
<path d="M124.742 174.224H152.506V202.985H124.742V174.224Z" fill="white"/>
</mask>
<g mask="url(#mask130_97_1007)">
<mask id="mask131_97_1007" style="mask-type:luminance" maskUnits="userSpaceOnUse" x="122" y="171" width="33" height="35">
<path d="M130.966 171.78L154.98 196.485L146.247 205.469L122.233 180.764L130.966 171.78Z" fill="white"/>
</mask>
<g mask="url(#mask131_97_1007)">
<mask id="mask132_97_1007" style="mask-type:luminance" maskUnits="userSpaceOnUse" x="124" y="174" width="29" height="29">
<path d="M150.566 191.945C152.977 194.426 152.977 198.448 150.566 200.929C148.155 203.41 144.245 203.41 141.834 200.929L126.599 185.255C124.187 182.774 124.187 178.752 126.599 176.271C129.01 173.791 132.92 173.791 135.331 176.271L150.566 191.945Z" fill="white"/>
</mask>
<g mask="url(#mask132_97_1007)">
<path d="M130.966 171.78L154.889 196.392L146.156 205.375L122.233 180.764L130.966 171.78Z" fill="#DA291C"/>
</g>
</g>
</g>
<mask id="mask133_97_1007" style="mask-type:luminance" maskUnits="userSpaceOnUse" x="124" y="261" width="29" height="31">
<path d="M124.742 261.995H152.506V291.202H124.742V261.995Z" fill="white"/>
</mask>
<g mask="url(#mask133_97_1007)">
<mask id="mask134_97_1007" style="mask-type:luminance" maskUnits="userSpaceOnUse" x="122" y="259" width="33" height="35">
<path d="M130.966 259.518L154.98 284.607L146.247 293.73L122.233 268.641L130.966 259.518Z" fill="white"/>
</mask>
<g mask="url(#mask134_97_1007)">
<mask id="mask135_97_1007" style="mask-type:luminance" maskUnits="userSpaceOnUse" x="124" y="262" width="29" height="30">
<path d="M150.566 279.996C152.977 282.515 152.977 286.6 150.566 289.119C148.155 291.639 144.245 291.639 141.834 289.119L126.599 273.202C124.187 270.683 124.187 266.598 126.599 264.079C129.01 261.559 132.92 261.559 135.331 264.079L150.566 279.996Z" fill="white"/>
</mask>
<g mask="url(#mask135_97_1007)">
<path d="M130.966 259.518L154.889 284.512L146.156 293.635L122.233 268.641L130.966 259.518Z" fill="#DA291C"/>
</g>
</g>
</g>
<mask id="mask136_97_1007" style="mask-type:luminance" maskUnits="userSpaceOnUse" x="23" y="153" width="29" height="30">
<path d="M23.7145 153.596H51.4779V182.158H23.7145V153.596Z" fill="white"/>
</mask>
<g mask="url(#mask136_97_1007)">
<mask id="mask137_97_1007" style="mask-type:luminance" maskUnits="userSpaceOnUse" x="21" y="151" width="34" height="34">
<path d="M21.3309 175.74L45.3452 151.034L54.0777 160.018L30.0634 184.724L21.3309 175.74Z" fill="white"/>
</mask>
<g mask="url(#mask137_97_1007)">
<mask id="mask138_97_1007" style="mask-type:luminance" maskUnits="userSpaceOnUse" x="23" y="153" width="29" height="30">
<path d="M40.9319 155.575C43.3434 153.094 47.2529 153.094 49.6644 155.575C52.0759 158.056 52.0759 162.078 49.6644 164.559L34.4293 180.231C32.0178 182.712 28.1083 182.712 25.6968 180.231C23.2853 177.751 23.2853 173.729 25.6968 171.248L40.9319 155.575Z" fill="white"/>
</mask>
<g mask="url(#mask138_97_1007)">
<path d="M21.3309 175.74L45.2541 151.128L53.9866 160.111L30.0634 184.724L21.3309 175.74Z" fill="#FF9E1B"/>
</g>
</g>
</g>
<mask id="mask139_97_1007" style="mask-type:luminance" maskUnits="userSpaceOnUse" x="23" y="239" width="29" height="29">
<path d="M23.7145 239.085H51.4779V267.647H23.7145V239.085Z" fill="white"/>
</mask>
<g mask="url(#mask139_97_1007)">
<mask id="mask140_97_1007" style="mask-type:luminance" maskUnits="userSpaceOnUse" x="21" y="236" width="34" height="35">
<path d="M21.3309 261.234L45.3452 236.528L54.0777 245.512L30.0634 270.218L21.3309 261.234Z" fill="white"/>
</mask>
<g mask="url(#mask140_97_1007)">
<mask id="mask141_97_1007" style="mask-type:luminance" maskUnits="userSpaceOnUse" x="23" y="239" width="29" height="29">
<path d="M40.9319 241.069C43.3434 238.588 47.2529 238.588 49.6644 241.069C52.0759 243.55 52.0759 247.572 49.6644 250.053L34.4293 265.726C32.0178 268.206 28.1083 268.206 25.6968 265.726C23.2853 263.245 23.2853 259.223 25.6968 256.742L40.9319 241.069Z" fill="white"/>
</mask>
<g mask="url(#mask141_97_1007)">
<path d="M21.3309 261.234L45.2541 236.622L53.9866 245.605L30.0634 270.218L21.3309 261.234Z" fill="#FF9E1B"/>
</g>
</g>
</g>
<mask id="mask142_97_1007" style="mask-type:luminance" maskUnits="userSpaceOnUse" x="23" y="196" width="29" height="30">
<path d="M23.7145 196.44H51.4779V225.002H23.7145V196.44Z" fill="white"/>
</mask>
<g mask="url(#mask142_97_1007)">
<mask id="mask143_97_1007" style="mask-type:luminance" maskUnits="userSpaceOnUse" x="21" y="193" width="34" height="35">
<path d="M21.3309 218.518L45.3452 193.813L54.0777 202.797L30.0634 227.502L21.3309 218.518Z" fill="white"/>
</mask>
<g mask="url(#mask143_97_1007)">
<mask id="mask144_97_1007" style="mask-type:luminance" maskUnits="userSpaceOnUse" x="23" y="196" width="29" height="29">
<path d="M40.9319 198.353C43.3434 195.872 47.2529 195.872 49.6644 198.353C52.0759 200.834 52.0759 204.856 49.6644 207.337L34.4293 223.011C32.0178 225.492 28.1083 225.492 25.6968 223.011C23.2853 220.53 23.2853 216.508 25.6968 214.027L40.9319 198.353Z" fill="white"/>
</mask>
<g mask="url(#mask144_97_1007)">
<path d="M21.3309 218.518L45.2541 193.907L53.9866 202.891L30.0634 227.502L21.3309 218.518Z" fill="#FF9E1B"/>
</g>
</g>
</g>
<mask id="mask145_97_1007" style="mask-type:luminance" maskUnits="userSpaceOnUse" x="104" y="153" width="29" height="30">
<path d="M104.691 153.596H132.454V182.158H104.691V153.596Z" fill="white"/>
</mask>
<g mask="url(#mask145_97_1007)">
<mask id="mask146_97_1007" style="mask-type:luminance" maskUnits="userSpaceOnUse" x="102" y="151" width="33" height="34">
<path d="M102.139 175.74L126.154 151.034L134.886 160.018L110.872 184.724L102.139 175.74Z" fill="white"/>
</mask>
<g mask="url(#mask146_97_1007)">
<mask id="mask147_97_1007" style="mask-type:luminance" maskUnits="userSpaceOnUse" x="104" y="153" width="29" height="30">
<path d="M121.74 155.575C124.152 153.094 128.061 153.094 130.473 155.575C132.884 158.056 132.884 162.078 130.473 164.559L115.239 180.231C112.827 182.712 108.917 182.712 106.506 180.231C104.095 177.751 104.095 173.729 106.506 171.248L121.74 155.575Z" fill="white"/>
</mask>
<g mask="url(#mask147_97_1007)">
<path d="M102.139 175.74L126.063 151.128L134.796 160.111L110.872 184.724L102.139 175.74Z" fill="#FF9E1B"/>
</g>
</g>
</g>
<mask id="mask148_97_1007" style="mask-type:luminance" maskUnits="userSpaceOnUse" x="104" y="239" width="29" height="29">
<path d="M104.691 239.085H132.454V267.647H104.691V239.085Z" fill="white"/>
</mask>
<g mask="url(#mask148_97_1007)">
<mask id="mask149_97_1007" style="mask-type:luminance" maskUnits="userSpaceOnUse" x="102" y="236" width="33" height="35">
<path d="M102.139 261.234L126.154 236.528L134.886 245.512L110.872 270.218L102.139 261.234Z" fill="white"/>
</mask>
<g mask="url(#mask149_97_1007)">
<mask id="mask150_97_1007" style="mask-type:luminance" maskUnits="userSpaceOnUse" x="104" y="239" width="29" height="29">
<path d="M121.74 241.069C124.152 238.588 128.061 238.588 130.473 241.069C132.884 243.55 132.884 247.572 130.473 250.053L115.239 265.726C112.827 268.206 108.917 268.206 106.506 265.726C104.095 263.245 104.095 259.223 106.506 256.742L121.74 241.069Z" fill="white"/>
</mask>
<g mask="url(#mask150_97_1007)">
<path d="M102.139 261.234L126.063 236.622L134.796 245.605L110.872 270.218L102.139 261.234Z" fill="#FF9E1B"/>
</g>
</g>
</g>
<mask id="mask151_97_1007" style="mask-type:luminance" maskUnits="userSpaceOnUse" x="104" y="196" width="29" height="30">
<path d="M104.691 196.44H132.454V225.002H104.691V196.44Z" fill="white"/>
</mask>
<g mask="url(#mask151_97_1007)">
<mask id="mask152_97_1007" style="mask-type:luminance" maskUnits="userSpaceOnUse" x="102" y="193" width="33" height="35">
<path d="M102.139 218.518L126.154 193.813L134.886 202.797L110.872 227.502L102.139 218.518Z" fill="white"/>
</mask>
<g mask="url(#mask152_97_1007)">
<mask id="mask153_97_1007" style="mask-type:luminance" maskUnits="userSpaceOnUse" x="104" y="196" width="29" height="29">
<path d="M121.74 198.353C124.152 195.872 128.061 195.872 130.473 198.353C132.884 200.834 132.884 204.856 130.473 207.337L115.239 223.011C112.827 225.492 108.917 225.492 106.506 223.011C104.095 220.53 104.095 216.508 106.506 214.027L121.74 198.353Z" fill="white"/>
</mask>
<g mask="url(#mask153_97_1007)">
<path d="M102.139 218.518L126.063 193.907L134.796 202.891L110.872 227.502L102.139 218.518Z" fill="#FF9E1B"/>
</g>
</g>
</g>
</g>
<defs>
<clipPath id="clip0_97_1007">
<rect width="156.169" height="163.16" fill="white"/>
</clipPath>
<clipPath id="clip1_97_1007">
<rect width="156.169" height="163.16" fill="white" transform="translate(0 129.25)"/>
</clipPath>
</defs>
</svg>
