<svg width="357" height="357" viewBox="0 0 357 357" fill="none" xmlns="http://www.w3.org/2000/svg">
<g clip-path="url(#clip0_201_807)">
<mask id="mask0_201_807" style="mask-type:luminance" maskUnits="userSpaceOnUse" x="98" y="98" width="64" height="64">
<path d="M98.4155 129.154L129.154 98.4155L161.222 130.483L130.484 161.222L98.4155 129.154Z" fill="white"/>
</mask>
<g mask="url(#mask0_201_807)">
<mask id="mask1_201_807" style="mask-type:luminance" maskUnits="userSpaceOnUse" x="119" y="102" width="22" height="56">
<path d="M120.545 156.748L119.394 102.421L139.149 102.839L140.3 157.166L120.545 156.748Z" fill="white"/>
</mask>
<g mask="url(#mask1_201_807)">
<mask id="mask2_201_807" style="mask-type:luminance" maskUnits="userSpaceOnUse" x="119" y="102" width="22" height="55">
<path d="M119.606 112.407C119.49 106.951 123.82 102.622 129.274 102.738C134.729 102.854 139.245 107.37 139.361 112.825L140.09 147.288C140.206 152.743 135.877 157.072 130.422 156.956C124.967 156.84 120.451 152.325 120.336 146.87L119.606 112.407Z" fill="white"/>
</mask>
<g mask="url(#mask2_201_807)">
<path d="M120.545 156.748L119.399 102.627L139.153 103.046L140.299 157.166L120.545 156.748Z" fill="#E9B633"/>
</g>
</g>
</g>
<mask id="mask3_201_807" style="mask-type:luminance" maskUnits="userSpaceOnUse" x="194" y="194" width="64" height="64">
<path d="M194.397 225.135L225.135 194.397L257.203 226.465L226.465 257.203L194.397 225.135Z" fill="white"/>
</mask>
<g mask="url(#mask3_201_807)">
<mask id="mask4_201_807" style="mask-type:luminance" maskUnits="userSpaceOnUse" x="215" y="198" width="22" height="56">
<path d="M216.532 252.735L215.382 198.408L235.137 198.827L236.287 253.153L216.532 252.735Z" fill="white"/>
</mask>
<g mask="url(#mask4_201_807)">
<mask id="mask5_201_807" style="mask-type:luminance" maskUnits="userSpaceOnUse" x="215" y="198" width="22" height="55">
<path d="M215.593 208.394C215.478 202.939 219.807 198.609 225.262 198.726C230.717 198.841 235.232 203.357 235.348 208.812L236.078 243.275C236.193 248.73 231.865 253.059 226.41 252.943C220.954 252.828 216.439 248.312 216.323 242.857L215.593 208.394Z" fill="white"/>
</mask>
<g mask="url(#mask5_201_807)">
<path d="M216.532 252.735L215.386 198.615L235.141 199.033L236.287 253.153L216.532 252.735Z" fill="#E9B633"/>
</g>
</g>
</g>
<mask id="mask6_201_807" style="mask-type:luminance" maskUnits="userSpaceOnUse" x="146" y="146" width="64" height="64">
<path d="M146.518 177.256L177.256 146.518L209.324 178.586L178.586 209.324L146.518 177.256Z" fill="white"/>
</mask>
<g mask="url(#mask6_201_807)">
<mask id="mask7_201_807" style="mask-type:luminance" maskUnits="userSpaceOnUse" x="167" y="150" width="22" height="56">
<path d="M168.574 204.777L167.424 150.451L187.179 150.869L188.328 205.195L168.574 204.777Z" fill="white"/>
</mask>
<g mask="url(#mask7_201_807)">
<mask id="mask8_201_807" style="mask-type:luminance" maskUnits="userSpaceOnUse" x="167" y="150" width="22" height="55">
<path d="M167.635 160.436C167.519 154.98 171.849 150.651 177.303 150.767C182.758 150.883 187.274 155.399 187.39 160.854L188.12 195.318C188.236 200.773 183.907 205.101 178.452 204.986C172.997 204.87 168.481 200.355 168.366 194.899L167.635 160.436Z" fill="white"/>
</mask>
<g mask="url(#mask8_201_807)">
<path d="M168.574 204.777L167.429 150.657L187.183 151.075L188.328 205.195L168.574 204.777Z" fill="#E9B633"/>
</g>
</g>
</g>
<mask id="mask9_201_807" style="mask-type:luminance" maskUnits="userSpaceOnUse" x="51" y="96" width="64" height="63">
<path d="M51.2833 126.848L82.0213 96.1096L114.089 128.178L83.3513 158.916L51.2833 126.848Z" fill="white"/>
</mask>
<g mask="url(#mask9_201_807)">
<mask id="mask10_201_807" style="mask-type:luminance" maskUnits="userSpaceOnUse" x="55" y="117" width="56" height="21">
<path d="M55.2906 117.05L109.616 118.202L110.035 137.956L55.7089 136.805L55.2906 117.05Z" fill="white"/>
</mask>
<g mask="url(#mask10_201_807)">
<mask id="mask11_201_807" style="mask-type:luminance" maskUnits="userSpaceOnUse" x="55" y="117" width="55" height="21">
<path d="M99.6318 117.989C105.087 118.105 109.604 122.621 109.718 128.076C109.834 133.531 105.505 137.86 100.05 137.744L65.5863 137.015C60.1318 136.899 55.6162 132.383 55.4998 126.929C55.3843 121.473 59.7135 117.144 65.168 117.26L99.6318 117.989Z" fill="white"/>
</mask>
<g mask="url(#mask11_201_807)">
<path d="M55.2906 117.05L109.411 118.196L109.829 137.952L55.7089 136.805L55.2906 117.05Z" fill="#DA291C"/>
</g>
</g>
</g>
<mask id="mask12_201_807" style="mask-type:luminance" maskUnits="userSpaceOnUse" x="147" y="192" width="64" height="63">
<path d="M147.265 222.829L178.003 192.091L210.071 224.159L179.333 254.897L147.265 222.829Z" fill="white"/>
</mask>
<g mask="url(#mask12_201_807)">
<mask id="mask13_201_807" style="mask-type:luminance" maskUnits="userSpaceOnUse" x="151" y="213" width="56" height="21">
<path d="M151.278 213.038L205.604 214.189L206.022 233.944L151.696 232.792L151.278 213.038Z" fill="white"/>
</mask>
<g mask="url(#mask13_201_807)">
<mask id="mask14_201_807" style="mask-type:luminance" maskUnits="userSpaceOnUse" x="151" y="213" width="55" height="21">
<path d="M195.619 213.977C201.075 214.092 205.591 218.609 205.706 224.063C205.821 229.518 201.493 233.847 196.038 233.731L161.574 233.002C156.119 232.886 151.604 228.37 151.487 222.916C151.372 217.461 155.701 213.131 161.155 213.248L195.619 213.977Z" fill="white"/>
</mask>
<g mask="url(#mask14_201_807)">
<path d="M151.278 213.038L205.399 214.184L205.816 233.939L151.696 232.792L151.278 213.038Z" fill="#DA291C"/>
</g>
</g>
</g>
<mask id="mask15_201_807" style="mask-type:luminance" maskUnits="userSpaceOnUse" x="99" y="143" width="64" height="65">
<path d="M99.1626 174.727L129.901 143.989L162.191 176.28L131.453 207.018L99.1626 174.727Z" fill="white"/>
</mask>
<g mask="url(#mask15_201_807)">
<mask id="mask16_201_807" style="mask-type:luminance" maskUnits="userSpaceOnUse" x="103" y="165" width="56" height="21">
<path d="M103.32 165.08L157.645 166.23L158.064 185.985L103.739 184.835L103.32 165.08Z" fill="white"/>
</mask>
<g mask="url(#mask16_201_807)">
<mask id="mask17_201_807" style="mask-type:luminance" maskUnits="userSpaceOnUse" x="103" y="165" width="55" height="21">
<path d="M147.662 166.019C153.117 166.135 157.633 170.65 157.748 176.105C157.864 181.561 153.535 185.889 148.08 185.774L113.615 185.044C108.161 184.928 103.645 180.412 103.529 174.957C103.413 169.502 107.742 165.173 113.197 165.289L147.662 166.019Z" fill="white"/>
</mask>
<g mask="url(#mask17_201_807)">
<path d="M103.32 165.08L157.44 166.225L157.858 185.981L103.739 184.835L103.32 165.08Z" fill="#DA291C"/>
</g>
</g>
</g>
<mask id="mask18_201_807" style="mask-type:luminance" maskUnits="userSpaceOnUse" x="197" y="242" width="65" height="65">
<path d="M197.705 273.27L228.444 242.532L261.236 275.324L230.498 306.062L197.705 273.27Z" fill="white"/>
</mask>
<g mask="url(#mask18_201_807)">
<mask id="mask19_201_807" style="mask-type:luminance" maskUnits="userSpaceOnUse" x="201" y="263" width="57" height="23">
<path d="M201.827 263.586L256.583 265.168L257.158 285.079L202.402 283.498L201.827 263.586Z" fill="white"/>
</mask>
<g mask="url(#mask19_201_807)">
<mask id="mask20_201_807" style="mask-type:luminance" maskUnits="userSpaceOnUse" x="202" y="263" width="55" height="22">
<path d="M246.52 264.877C252.018 265.036 256.604 269.622 256.763 275.121C256.922 280.619 252.594 284.948 247.095 284.789L212.357 283.785C206.859 283.626 202.273 279.04 202.114 273.542C201.955 268.043 206.284 263.714 211.782 263.874L246.52 264.877Z" fill="white"/>
</mask>
<g mask="url(#mask20_201_807)">
<path d="M201.827 263.586L256.376 265.161L256.95 285.073L202.402 283.498L201.827 263.586Z" fill="#DA291C"/>
</g>
</g>
</g>
<mask id="mask21_201_807" style="mask-type:luminance" maskUnits="userSpaceOnUse" x="95" y="52" width="64" height="63">
<path d="M95.2558 82.875L125.994 52.1369L158.062 84.2049L127.324 114.943L95.2558 82.875Z" fill="white"/>
</mask>
<g mask="url(#mask21_201_807)">
<mask id="mask22_201_807" style="mask-type:luminance" maskUnits="userSpaceOnUse" x="99" y="73" width="55" height="22">
<path d="M99.2048 73.136L153.531 74.2872L153.949 94.0419L99.6231 92.8907L99.2048 73.136Z" fill="white"/>
</mask>
<g mask="url(#mask22_201_807)">
<mask id="mask23_201_807" style="mask-type:luminance" maskUnits="userSpaceOnUse" x="99" y="73" width="55" height="21">
<path d="M143.546 74.0749C149.001 74.1904 153.518 78.7069 153.632 84.1614C153.748 89.6167 149.42 93.9451 143.964 93.8296L109.5 93.1006C104.045 92.9851 99.5295 88.4695 99.414 83.0141C99.2985 77.5588 103.627 73.2304 109.082 73.3459L143.546 74.0749Z" fill="white"/>
</mask>
<g mask="url(#mask23_201_807)">
<path d="M99.2048 73.136L153.324 74.2829L153.743 94.0375L99.6231 92.8907L99.2048 73.136Z" fill="#DA291C"/>
</g>
</g>
</g>
<mask id="mask24_201_807" style="mask-type:luminance" maskUnits="userSpaceOnUse" x="191" y="148" width="64" height="63">
<path d="M191.237 178.856L221.975 148.118L254.043 180.186L223.305 210.924L191.237 178.856Z" fill="white"/>
</mask>
<g mask="url(#mask24_201_807)">
<mask id="mask25_201_807" style="mask-type:luminance" maskUnits="userSpaceOnUse" x="195" y="169" width="55" height="22">
<path d="M195.192 169.124L249.518 170.275L249.936 190.029L195.611 188.878L195.192 169.124Z" fill="white"/>
</mask>
<g mask="url(#mask25_201_807)">
<mask id="mask26_201_807" style="mask-type:luminance" maskUnits="userSpaceOnUse" x="195" y="169" width="55" height="21">
<path d="M239.533 170.062C244.989 170.178 249.505 174.694 249.62 180.149C249.735 185.604 245.407 189.933 239.952 189.817L205.488 189.088C200.033 188.973 195.517 184.457 195.401 179.002C195.286 173.546 199.614 169.218 205.07 169.333L239.533 170.062Z" fill="white"/>
</mask>
<g mask="url(#mask26_201_807)">
<path d="M195.192 169.124L249.312 170.27L249.73 190.025L195.611 188.878L195.192 169.124Z" fill="#DA291C"/>
</g>
</g>
</g>
<mask id="mask27_201_807" style="mask-type:luminance" maskUnits="userSpaceOnUse" x="143" y="100" width="64" height="64">
<path d="M143.135 130.754L173.873 100.016L206.164 132.307L175.426 163.045L143.135 130.754Z" fill="white"/>
</mask>
<g mask="url(#mask27_201_807)">
<mask id="mask28_201_807" style="mask-type:luminance" maskUnits="userSpaceOnUse" x="147" y="121" width="55" height="22">
<path d="M147.235 121.166L201.56 122.316L201.978 142.071L147.653 140.92L147.235 121.166Z" fill="white"/>
</mask>
<g mask="url(#mask28_201_807)">
<mask id="mask29_201_807" style="mask-type:luminance" maskUnits="userSpaceOnUse" x="147" y="121" width="55" height="21">
<path d="M191.576 122.105C197.031 122.22 201.547 126.736 201.662 132.191C201.778 137.647 197.449 141.975 191.994 141.859L157.529 141.13C152.074 141.014 147.558 136.499 147.443 131.043C147.327 125.588 151.656 121.259 157.111 121.375L191.576 122.105Z" fill="white"/>
</mask>
<g mask="url(#mask29_201_807)">
<path d="M147.235 121.166L201.353 122.312L201.772 142.066L147.653 140.92L147.235 121.166Z" fill="#DA291C"/>
</g>
</g>
</g>
<mask id="mask30_201_807" style="mask-type:luminance" maskUnits="userSpaceOnUse" x="241" y="198" width="65" height="65">
<path d="M241.678 229.297L272.416 198.559L305.209 231.352L274.471 262.09L241.678 229.297Z" fill="white"/>
</mask>
<g mask="url(#mask30_201_807)">
<mask id="mask31_201_807" style="mask-type:luminance" maskUnits="userSpaceOnUse" x="245" y="219" width="57" height="23">
<path d="M245.741 219.672L300.497 221.254L301.072 241.165L246.316 239.584L245.741 219.672Z" fill="white"/>
</mask>
<g mask="url(#mask31_201_807)">
<mask id="mask32_201_807" style="mask-type:luminance" maskUnits="userSpaceOnUse" x="246" y="219" width="55" height="22">
<path d="M290.434 220.963C295.933 221.122 300.518 225.708 300.677 231.207C300.836 236.705 296.508 241.034 291.009 240.875L256.271 239.871C250.772 239.713 246.186 235.127 246.028 229.628C245.869 224.13 250.197 219.801 255.696 219.96L290.434 220.963Z" fill="white"/>
</mask>
<g mask="url(#mask32_201_807)">
<path d="M245.741 219.672L300.289 221.248L300.864 241.159L246.316 239.584L245.741 219.672Z" fill="#DA291C"/>
</g>
</g>
</g>
<mask id="mask33_201_807" style="mask-type:luminance" maskUnits="userSpaceOnUse" x="5" y="142" width="65" height="64">
<path d="M5.92847 172.853L36.6665 142.115L69.233 174.682L38.4949 205.42L5.92847 172.853Z" fill="white"/>
</mask>
<g mask="url(#mask33_201_807)">
<mask id="mask34_201_807" style="mask-type:luminance" maskUnits="userSpaceOnUse" x="10" y="162" width="56" height="23">
<path d="M10.0184 162.883L64.7754 164.466L65.3505 184.377L10.5927 182.796L10.0184 162.883Z" fill="white"/>
</mask>
<g mask="url(#mask34_201_807)">
<mask id="mask35_201_807" style="mask-type:luminance" maskUnits="userSpaceOnUse" x="10" y="163" width="55" height="22">
<path d="M54.7115 164.174C60.2093 164.334 64.796 168.92 64.9548 174.417C65.1136 179.916 60.7844 184.245 55.2866 184.086L20.5493 183.083C15.0507 182.924 10.4648 178.338 10.306 172.84C10.1472 167.341 14.4756 163.013 19.9742 163.172L54.7115 164.174Z" fill="white"/>
</mask>
<g mask="url(#mask35_201_807)">
<path d="M10.0184 162.883L64.5676 164.46L65.1427 184.371L10.5927 182.796L10.0184 162.883Z" fill="#DA291C"/>
</g>
</g>
</g>
<mask id="mask36_201_807" style="mask-type:luminance" maskUnits="userSpaceOnUse" x="103" y="239" width="64" height="64">
<path d="M103.402 270.326L134.14 239.588L166.706 272.155L135.968 302.893L103.402 270.326Z" fill="white"/>
</mask>
<g mask="url(#mask36_201_807)">
<mask id="mask37_201_807" style="mask-type:luminance" maskUnits="userSpaceOnUse" x="107" y="260" width="56" height="22">
<path d="M107.498 260.363L162.255 261.945L162.83 281.857L108.072 280.275L107.498 260.363Z" fill="white"/>
</mask>
<g mask="url(#mask37_201_807)">
<mask id="mask38_201_807" style="mask-type:luminance" maskUnits="userSpaceOnUse" x="107" y="260" width="56" height="22">
<path d="M152.191 261.654C157.689 261.813 162.275 266.4 162.434 271.897C162.593 277.395 158.264 281.725 152.766 281.565L118.029 280.563C112.53 280.404 107.944 275.818 107.785 270.319C107.627 264.821 111.955 260.492 117.454 260.651L152.191 261.654Z" fill="white"/>
</mask>
<g mask="url(#mask38_201_807)">
<path d="M107.498 260.363L162.047 261.939L162.622 281.851L108.072 280.275L107.498 260.363Z" fill="#DA291C"/>
</g>
</g>
</g>
<mask id="mask39_201_807" style="mask-type:luminance" maskUnits="userSpaceOnUse" x="54" y="190" width="65" height="65">
<path d="M54.552 221.477L85.2901 190.739L118.083 223.531L87.3446 254.269L54.552 221.477Z" fill="white"/>
</mask>
<g mask="url(#mask39_201_807)">
<mask id="mask40_201_807" style="mask-type:luminance" maskUnits="userSpaceOnUse" x="58" y="211" width="57" height="23">
<path d="M58.7948 211.66L113.551 213.241L114.126 233.153L59.3691 231.572L58.7948 211.66Z" fill="white"/>
</mask>
<g mask="url(#mask40_201_807)">
<mask id="mask41_201_807" style="mask-type:luminance" maskUnits="userSpaceOnUse" x="59" y="211" width="55" height="22">
<path d="M103.488 212.95C108.986 213.11 113.571 217.696 113.731 223.194C113.89 228.692 109.561 233.021 104.063 232.862L69.3248 231.858C63.8261 231.7 59.2403 227.114 59.0815 221.615C58.9227 216.117 63.251 211.788 68.7497 211.947L103.488 212.95Z" fill="white"/>
</mask>
<g mask="url(#mask41_201_807)">
<path d="M58.7948 211.66L113.343 213.235L113.918 233.147L59.3691 231.572L58.7948 211.66Z" fill="#DA291C"/>
</g>
</g>
</g>
<mask id="mask42_201_807" style="mask-type:luminance" maskUnits="userSpaceOnUse" x="152" y="288" width="64" height="64">
<path d="M152.025 318.95L182.763 288.212L215.556 321.005L184.818 351.743L152.025 318.95Z" fill="white"/>
</mask>
<g mask="url(#mask42_201_807)">
<mask id="mask43_201_807" style="mask-type:luminance" maskUnits="userSpaceOnUse" x="156" y="309" width="56" height="22">
<path d="M156.274 309.139L211.03 310.72L211.605 330.632L156.848 329.051L156.274 309.139Z" fill="white"/>
</mask>
<g mask="url(#mask43_201_807)">
<mask id="mask44_201_807" style="mask-type:luminance" maskUnits="userSpaceOnUse" x="156" y="309" width="56" height="22">
<path d="M200.967 310.43C206.465 310.589 211.051 315.175 211.21 320.673C211.369 326.172 207.04 330.501 201.542 330.341L166.804 329.338C161.306 329.179 156.72 324.593 156.561 319.094C156.402 313.596 160.73 309.267 166.229 309.426L200.967 310.43Z" fill="white"/>
</mask>
<g mask="url(#mask44_201_807)">
<path d="M156.274 309.139L210.822 310.714L211.398 330.626L156.848 329.051L156.274 309.139Z" fill="#DA291C"/>
</g>
</g>
</g>
<mask id="mask45_201_807" style="mask-type:luminance" maskUnits="userSpaceOnUse" x="140" y="6" width="64" height="64">
<path d="M140.723 37.4084L171.461 6.67037L203.529 38.7384L172.791 69.4765L140.723 37.4084Z" fill="white"/>
</mask>
<g mask="url(#mask45_201_807)">
<mask id="mask46_201_807" style="mask-type:luminance" maskUnits="userSpaceOnUse" x="144" y="27" width="56" height="22">
<path d="M144.717 27.6236L199.043 28.7748L199.462 48.5294L145.136 47.3782L144.717 27.6236Z" fill="white"/>
</mask>
<g mask="url(#mask46_201_807)">
<mask id="mask47_201_807" style="mask-type:luminance" maskUnits="userSpaceOnUse" x="144" y="27" width="56" height="22">
<path d="M189.059 28.5624C194.513 28.6788 199.03 33.1953 199.145 38.6489C199.261 44.1042 194.931 48.4335 189.477 48.3171L155.013 47.5882C149.558 47.4727 145.042 42.957 144.927 37.5017C144.811 32.0464 149.139 27.718 154.595 27.8335L189.059 28.5624Z" fill="white"/>
</mask>
<g mask="url(#mask47_201_807)">
<path d="M144.717 27.6236L198.837 28.7704L199.255 48.5251L145.136 47.3782L144.717 27.6236Z" fill="#DA291C"/>
</g>
</g>
</g>
<mask id="mask48_201_807" style="mask-type:luminance" maskUnits="userSpaceOnUse" x="144" y="27" width="56" height="22">
<path d="M144.717 27.6236L199.043 28.7748L199.462 48.5294L145.136 47.3782L144.717 27.6236Z" fill="white"/>
</mask>
<g mask="url(#mask48_201_807)">
<mask id="mask49_201_807" style="mask-type:luminance" maskUnits="userSpaceOnUse" x="144" y="27" width="56" height="22">
<path d="M189.059 28.5624C194.513 28.6788 199.03 33.1953 199.145 38.6489C199.261 44.1042 194.931 48.4335 189.477 48.3171L155.013 47.5882C149.558 47.4727 145.042 42.957 144.927 37.5017C144.811 32.0464 149.139 27.718 154.595 27.8335L189.059 28.5624Z" fill="white"/>
</mask>
<g mask="url(#mask49_201_807)">
<path d="M144.717 27.6236L198.837 28.7704L199.255 48.5251L145.136 47.3782L144.717 27.6236Z" fill="#DA291C"/>
</g>
</g>
<mask id="mask50_201_807" style="mask-type:luminance" maskUnits="userSpaceOnUse" x="236" y="102" width="64" height="64">
<path d="M236.704 133.39L267.442 102.652L299.51 134.72L268.772 165.458L236.704 133.39Z" fill="white"/>
</mask>
<g mask="url(#mask50_201_807)">
<mask id="mask51_201_807" style="mask-type:luminance" maskUnits="userSpaceOnUse" x="240" y="123" width="56" height="22">
<path d="M240.705 123.611L295.031 124.762L295.449 144.517L241.123 143.366L240.705 123.611Z" fill="white"/>
</mask>
<g mask="url(#mask51_201_807)">
<mask id="mask52_201_807" style="mask-type:luminance" maskUnits="userSpaceOnUse" x="240" y="123" width="56" height="22">
<path d="M285.046 124.55C290.501 124.666 295.017 129.183 295.133 134.636C295.248 140.092 290.919 144.421 285.464 144.304L251.001 143.575C245.545 143.46 241.03 138.944 240.914 133.489C240.799 128.034 245.127 123.705 250.582 123.821L285.046 124.55Z" fill="white"/>
</mask>
<g mask="url(#mask52_201_807)">
<path d="M240.705 123.611L294.825 124.758L295.243 144.512L241.123 143.366L240.705 123.611Z" fill="#DA291C"/>
</g>
</g>
</g>
<mask id="mask53_201_807" style="mask-type:luminance" maskUnits="userSpaceOnUse" x="188" y="54" width="64" height="64">
<path d="M188.602 85.2876L219.34 54.5495L251.631 86.8402L220.893 117.578L188.602 85.2876Z" fill="white"/>
</mask>
<g mask="url(#mask53_201_807)">
<mask id="mask54_201_807" style="mask-type:luminance" maskUnits="userSpaceOnUse" x="192" y="75" width="56" height="22">
<path d="M192.747 75.6531L247.072 76.8034L247.49 96.5581L193.165 95.4078L192.747 75.6531Z" fill="white"/>
</mask>
<g mask="url(#mask54_201_807)">
<mask id="mask55_201_807" style="mask-type:luminance" maskUnits="userSpaceOnUse" x="192" y="75" width="56" height="22">
<path d="M237.088 76.5921C242.543 76.7085 247.058 81.2241 247.175 86.6786C247.29 92.1339 242.961 96.4631 237.507 96.3468L203.042 95.617C197.587 95.5015 193.071 90.9858 192.956 85.5305C192.84 80.0752 197.168 75.7468 202.624 75.8623L237.088 76.5921Z" fill="white"/>
</mask>
<g mask="url(#mask55_201_807)">
<path d="M192.747 75.6531L246.866 76.7991L247.284 96.5538L193.165 95.4078L192.747 75.6531Z" fill="#DA291C"/>
</g>
</g>
</g>
<mask id="mask56_201_807" style="mask-type:luminance" maskUnits="userSpaceOnUse" x="287" y="153" width="64" height="64">
<path d="M287.145 183.831L317.883 153.092L350.675 185.885L319.937 216.623L287.145 183.831Z" fill="white"/>
</mask>
<g mask="url(#mask56_201_807)">
<mask id="mask57_201_807" style="mask-type:luminance" maskUnits="userSpaceOnUse" x="291" y="174" width="56" height="22">
<path d="M291.254 174.16L346.01 175.741L346.585 195.653L291.829 194.071L291.254 174.16Z" fill="white"/>
</mask>
<g mask="url(#mask57_201_807)">
<mask id="mask58_201_807" style="mask-type:luminance" maskUnits="userSpaceOnUse" x="291" y="174" width="56" height="22">
<path d="M335.947 175.451C341.444 175.61 346.03 180.196 346.19 185.694C346.349 191.192 342.019 195.522 336.522 195.362L301.784 194.359C296.285 194.2 291.699 189.614 291.54 184.115C291.381 178.617 295.71 174.288 301.208 174.447L335.947 175.451Z" fill="white"/>
</mask>
<g mask="url(#mask58_201_807)">
<path d="M291.254 174.16L345.802 175.735L346.377 195.647L291.829 194.071L291.254 174.16Z" fill="#DA291C"/>
</g>
</g>
</g>
<mask id="mask59_201_807" style="mask-type:luminance" maskUnits="userSpaceOnUse" x="53" y="143" width="64" height="64">
<path d="M53.5892 173.98L84.3273 143.242L116.395 175.31L85.6572 206.048L53.5892 173.98Z" fill="white"/>
</mask>
<g mask="url(#mask59_201_807)">
<mask id="mask60_201_807" style="mask-type:luminance" maskUnits="userSpaceOnUse" x="74" y="147" width="22" height="55">
<path d="M75.8119 201.481L74.6607 147.155L94.4154 147.573L95.5666 201.899L75.8119 201.481Z" fill="white"/>
</mask>
<g mask="url(#mask60_201_807)">
<mask id="mask61_201_807" style="mask-type:luminance" maskUnits="userSpaceOnUse" x="74" y="147" width="22" height="55">
<path d="M74.8729 157.14C74.7574 151.684 79.0858 147.356 84.5411 147.471C89.9964 147.587 94.5121 152.103 94.6276 157.558L95.3565 192.022C95.472 197.477 91.1437 201.805 85.6883 201.69C80.233 201.574 75.7174 197.059 75.6018 191.603L74.8729 157.14Z" fill="white"/>
</mask>
<g mask="url(#mask61_201_807)">
<path d="M75.8118 201.481L74.665 147.361L94.4197 147.779L95.5665 201.899L75.8118 201.481Z" fill="#E9B633"/>
</g>
</g>
</g>
<mask id="mask62_201_807" style="mask-type:luminance" maskUnits="userSpaceOnUse" x="149" y="239" width="64" height="64">
<path d="M149.57 269.961L180.309 239.223L212.377 271.291L181.639 302.029L149.57 269.961Z" fill="white"/>
</mask>
<g mask="url(#mask62_201_807)">
<mask id="mask63_201_807" style="mask-type:luminance" maskUnits="userSpaceOnUse" x="170" y="243" width="22" height="55">
<path d="M171.799 297.468L170.648 243.142L190.403 243.56L191.554 297.886L171.799 297.468Z" fill="white"/>
</mask>
<g mask="url(#mask63_201_807)">
<mask id="mask64_201_807" style="mask-type:luminance" maskUnits="userSpaceOnUse" x="170" y="243" width="22" height="55">
<path d="M170.86 253.127C170.745 247.672 175.073 243.343 180.529 243.459C185.984 243.574 190.5 248.09 190.615 253.545L191.344 288.009C191.459 293.464 187.131 297.793 181.676 297.677C176.22 297.562 171.705 293.046 171.589 287.591L170.86 253.127Z" fill="white"/>
</mask>
<g mask="url(#mask64_201_807)">
<path d="M171.799 297.468L170.652 243.348L190.407 243.767L191.554 297.886L171.799 297.468Z" fill="#E9B633"/>
</g>
</g>
</g>
<mask id="mask65_201_807" style="mask-type:luminance" maskUnits="userSpaceOnUse" x="101" y="191" width="64" height="64">
<path d="M101.691 222.082L132.429 191.344L164.497 223.412L133.759 254.15L101.691 222.082Z" fill="white"/>
</mask>
<g mask="url(#mask65_201_807)">
<mask id="mask66_201_807" style="mask-type:luminance" maskUnits="userSpaceOnUse" x="122" y="195" width="22" height="55">
<path d="M123.841 249.509L122.69 195.184L142.445 195.603L143.595 249.928L123.841 249.509Z" fill="white"/>
</mask>
<g mask="url(#mask66_201_807)">
<mask id="mask67_201_807" style="mask-type:luminance" maskUnits="userSpaceOnUse" x="122" y="195" width="22" height="55">
<path d="M122.902 205.168C122.786 199.713 127.115 195.384 132.57 195.5C138.025 195.616 142.541 200.131 142.657 205.587L143.386 240.051C143.502 245.506 139.173 249.835 133.718 249.719C128.263 249.604 123.747 245.088 123.632 239.633L122.902 205.168Z" fill="white"/>
</mask>
<g mask="url(#mask67_201_807)">
<path d="M123.841 249.509L122.695 195.391L142.449 195.809L143.595 249.928L123.841 249.509Z" fill="#E9B633"/>
</g>
</g>
</g>
<mask id="mask68_201_807" style="mask-type:luminance" maskUnits="userSpaceOnUse" x="143" y="53" width="64" height="64">
<path d="M143.242 84.3271L173.98 53.5891L206.048 85.6571L175.31 116.395L143.242 84.3271Z" fill="white"/>
</mask>
<g mask="url(#mask68_201_807)">
<mask id="mask69_201_807" style="mask-type:luminance" maskUnits="userSpaceOnUse" x="164" y="57" width="22" height="56">
<path d="M165.279 112.014L164.127 57.6881L183.882 58.1064L185.033 112.432L165.279 112.014Z" fill="white"/>
</mask>
<g mask="url(#mask69_201_807)">
<mask id="mask70_201_807" style="mask-type:luminance" maskUnits="userSpaceOnUse" x="164" y="58" width="21" height="55">
<path d="M164.34 67.6727C164.224 62.2174 168.553 57.889 174.008 58.0045C179.463 58.12 183.979 62.6357 184.094 68.091L184.824 102.554C184.94 108.009 180.61 112.338 175.156 112.222C169.701 112.107 165.185 107.591 165.069 102.136L164.34 67.6727Z" fill="white"/>
</mask>
<g mask="url(#mask70_201_807)">
<path d="M165.279 112.014L164.133 57.8934L183.887 58.3117L185.033 112.432L165.279 112.014Z" fill="#E9B633"/>
</g>
</g>
</g>
<mask id="mask71_201_807" style="mask-type:luminance" maskUnits="userSpaceOnUse" x="239" y="149" width="64" height="64">
<path d="M239.223 180.309L269.961 149.571L302.029 181.639L271.291 212.377L239.223 180.309Z" fill="white"/>
</mask>
<g mask="url(#mask71_201_807)">
<mask id="mask72_201_807" style="mask-type:luminance" maskUnits="userSpaceOnUse" x="260" y="153" width="22" height="56">
<path d="M261.266 208.001L260.115 153.676L279.87 154.094L281.021 208.42L261.266 208.001Z" fill="white"/>
</mask>
<g mask="url(#mask72_201_807)">
<mask id="mask73_201_807" style="mask-type:luminance" maskUnits="userSpaceOnUse" x="260" y="153" width="21" height="56">
<path d="M260.327 163.66C260.212 158.205 264.54 153.877 269.995 153.992C275.451 154.108 279.966 158.623 280.082 164.079L280.812 198.541C280.927 203.997 276.598 208.326 271.143 208.21C265.688 208.094 261.172 203.578 261.057 198.123L260.327 163.66Z" fill="white"/>
</mask>
<g mask="url(#mask73_201_807)">
<path d="M261.266 208.001L260.12 153.881L279.875 154.299L281.021 208.42L261.266 208.001Z" fill="#E9B633"/>
</g>
</g>
</g>
<mask id="mask74_201_807" style="mask-type:luminance" maskUnits="userSpaceOnUse" x="191" y="101" width="64" height="64">
<path d="M191.344 132.429L222.082 101.691L254.15 133.759L223.412 164.497L191.344 132.429Z" fill="white"/>
</mask>
<g mask="url(#mask74_201_807)">
<mask id="mask75_201_807" style="mask-type:luminance" maskUnits="userSpaceOnUse" x="212" y="105" width="22" height="56">
<path d="M213.308 160.043L212.157 105.718L231.912 106.136L233.062 160.461L213.308 160.043Z" fill="white"/>
</mask>
<g mask="url(#mask75_201_807)">
<mask id="mask76_201_807" style="mask-type:luminance" maskUnits="userSpaceOnUse" x="212" y="106" width="21" height="55">
<path d="M212.369 115.702C212.253 110.246 216.581 105.918 222.037 106.034C227.492 106.149 232.008 110.665 232.123 116.12L232.854 150.584C232.969 156.039 228.64 160.368 223.186 160.252C217.73 160.137 213.215 155.621 213.099 150.166L212.369 115.702Z" fill="white"/>
</mask>
<g mask="url(#mask76_201_807)">
<path d="M213.307 160.043L212.162 105.923L231.917 106.341L233.062 160.461L213.307 160.043Z" fill="#E9B633"/>
</g>
</g>
</g>
</g>
<defs>
<clipPath id="clip0_201_807">
<rect width="244.52" height="259.065" fill="white" transform="translate(0 172.902) rotate(-45)"/>
</clipPath>
</defs>
</svg>
